<?plantuml 1.2026.2?><svg xmlns="http://www.w3.org/2000/svg" xmlns:xlink="http://www.w3.org/1999/xlink" contentStyleType="text/css" data-diagram-type="CLASS" height="687px" preserveAspectRatio="none" style="width:1170px;height:687px;background:#FFFFFF;" version="1.1" viewBox="0 0 1170 687" width="1170px" zoomAndPan="magnify"><defs/><g><!--class Subject--><g class="entity" data-qualified-name="Subject" data-source-line="8" id="ent0002"><rect fill="#F1F1F1" height="166.875" rx="2.5" ry="2.5" style="stroke:#181818;stroke-width:0.5;" width="154.3994" x="417" y="7"/><text fill="#000000" font-family="sans-serif" font-size="14" lengthAdjust="spacing" textLength="46.6963" x="470.8516" y="26.5332">Subject</text><line style="stroke:#181818;stroke-width:0.5;" x1="418" x2="570.3994" y1="34.6094" y2="34.6094"/><text fill="#000000" font-family="sans-serif" font-size="14" lengthAdjust="spacing" textLength="94.9512" x="423" y="53.1426">Id : bigint &#171;PK&#187;</text><line style="stroke:#181818;stroke-width:1;" x1="418" x2="570.3994" y1="60.2188" y2="60.2188"/><text fill="#000000" font-family="sans-serif" font-size="14" lengthAdjust="spacing" textLength="128.3789" x="423" y="78.752">Name : varchar(255)</text><text fill="#000000" font-family="sans-serif" font-size="14" lengthAdjust="spacing" textLength="142.3926" x="423" y="96.3613">Teacher : varchar(255)</text><text fill="#000000" font-family="sans-serif" font-size="14" lengthAdjust="spacing" textLength="116.7168" x="423" y="113.9707">Code : varchar(64)</text><text fill="#000000" font-family="sans-serif" font-size="14" lengthAdjust="spacing" textLength="115.9648" x="423" y="131.5801">Archived : boolean</text><text fill="#000000" font-family="sans-serif" font-size="14" lengthAdjust="spacing" textLength="139.2754" x="423" y="149.1895">CreatedAt : timestamp</text><text fill="#000000" font-family="sans-serif" font-size="14" lengthAdjust="spacing" textLength="142.3994" x="423" y="166.7988">UpdatedAt : timestamp</text></g><!--class Task--><g class="entity" data-qualified-name="Task" data-source-line="19" id="ent0003"><rect fill="#F1F1F1" height="149.2656" rx="2.5" ry="2.5" style="stroke:#181818;stroke-width:0.5;" width="154.3994" x="7" y="270"/><text fill="#000000" font-family="sans-serif" font-size="14" lengthAdjust="spacing" textLength="30.3379" x="69.0308" y="289.5332">Task</text><line style="stroke:#181818;stroke-width:0.5;" x1="8" x2="160.3994" y1="297.6094" y2="297.6094"/><text fill="#000000" font-family="sans-serif" font-size="14" lengthAdjust="spacing" textLength="94.9512" x="13" y="316.1426">Id : bigint &#171;PK&#187;</text><text fill="#000000" font-family="sans-serif" font-size="14" lengthAdjust="spacing" textLength="140.8613" x="13" y="333.752">SubjectId : bigint &#171;FK&#187;</text><line style="stroke:#181818;stroke-width:1;" x1="8" x2="160.3994" y1="340.8281" y2="340.8281"/><text fill="#000000" font-family="sans-serif" font-size="14" lengthAdjust="spacing" textLength="117.4824" x="13" y="359.3613">Title : varchar(255)</text><text fill="#000000" font-family="sans-serif" font-size="14" lengthAdjust="spacing" textLength="94.9648" x="13" y="376.9707">Done : boolean</text><text fill="#000000" font-family="sans-serif" font-size="14" lengthAdjust="spacing" textLength="139.2754" x="13" y="394.5801">CreatedAt : timestamp</text><text fill="#000000" font-family="sans-serif" font-size="14" lengthAdjust="spacing" textLength="142.3994" x="13" y="412.1895">UpdatedAt : timestamp</text></g><!--class Event--><g class="entity" data-qualified-name="Event" data-source-line="29" id="ent0004"><rect fill="#F1F1F1" height="219.7031" rx="2.5" ry="2.5" style="stroke:#181818;stroke-width:0.5;" width="155.9648" x="276" y="234.5"/><text fill="#000000" font-family="sans-serif" font-size="14" lengthAdjust="spacing" textLength="35.7998" x="336.0825" y="254.0332">Event</text><line style="stroke:#181818;stroke-width:0.5;" x1="277" x2="430.9648" y1="262.1094" y2="262.1094"/><text fill="#000000" font-family="sans-serif" font-size="14" lengthAdjust="spacing" textLength="94.9512" x="282" y="280.6426">Id : bigint &#171;PK&#187;</text><text fill="#000000" font-family="sans-serif" font-size="14" lengthAdjust="spacing" textLength="140.8613" x="282" y="298.252">SubjectId : bigint &#171;FK&#187;</text><line style="stroke:#181818;stroke-width:1;" x1="277" x2="430.9648" y1="305.3281" y2="305.3281"/><text fill="#000000" font-family="sans-serif" font-size="14" lengthAdjust="spacing" textLength="117.4824" x="282" y="323.8613">Title : varchar(255)</text><text fill="#000000" font-family="sans-serif" font-size="14" lengthAdjust="spacing" textLength="68.4893" x="282" y="341.4707">Date : date</text><text fill="#000000" font-family="sans-serif" font-size="14" lengthAdjust="spacing" textLength="114.3584" x="282" y="359.0801">Time : varchar(64)</text><text fill="#000000" font-family="sans-serif" font-size="14" lengthAdjust="spacing" textLength="143.9648" x="282" y="376.6895">Location : varchar(255)</text><text fill="#000000" font-family="sans-serif" font-size="14" lengthAdjust="spacing" textLength="109.71" x="282" y="394.2988">Icon : varchar(64)</text><text fill="#000000" font-family="sans-serif" font-size="14" lengthAdjust="spacing" textLength="126.0479" x="282" y="411.9082">Accent : varchar(20)</text><text fill="#000000" font-family="sans-serif" font-size="14" lengthAdjust="spacing" textLength="139.2754" x="282" y="429.5176">CreatedAt : timestamp</text><text fill="#000000" font-family="sans-serif" font-size="14" lengthAdjust="spacing" textLength="142.3994" x="282" y="447.127">UpdatedAt : timestamp</text></g><!--class FileRecord--><g class="entity" data-qualified-name="FileRecord" data-source-line="43" id="ent0005"><rect fill="#F1F1F1" height="202.0938" rx="2.5" ry="2.5" style="stroke:#181818;stroke-width:0.5;" width="169.9854" x="550" y="243.5"/><text fill="#000000" font-family="sans-serif" font-size="14" lengthAdjust="spacing" textLength="67.6895" x="601.1479" y="263.0332">FileRecord</text><line style="stroke:#181818;stroke-width:0.5;" x1="551" x2="718.9854" y1="271.1094" y2="271.1094"/><text fill="#000000" font-family="sans-serif" font-size="14" lengthAdjust="spacing" textLength="94.9512" x="556" y="289.6426">Id : bigint &#171;PK&#187;</text><text fill="#000000" font-family="sans-serif" font-size="14" lengthAdjust="spacing" textLength="140.8613" x="556" y="307.252">SubjectId : bigint &#171;FK&#187;</text><line style="stroke:#181818;stroke-width:1;" x1="551" x2="718.9854" y1="314.3281" y2="314.3281"/><text fill="#000000" font-family="sans-serif" font-size="14" lengthAdjust="spacing" textLength="128.3789" x="556" y="332.8613">Name : varchar(255)</text><text fill="#000000" font-family="sans-serif" font-size="14" lengthAdjust="spacing" textLength="110.4824" x="556" y="350.4707">Size : varchar(64)</text><text fill="#000000" font-family="sans-serif" font-size="14" lengthAdjust="spacing" textLength="157.9854" x="556" y="368.0801">AddedLabel : varchar(64)</text><text fill="#000000" font-family="sans-serif" font-size="14" lengthAdjust="spacing" textLength="140.0547" x="556" y="385.6895">Category : varchar(20)</text><text fill="#000000" font-family="sans-serif" font-size="14" lengthAdjust="spacing" textLength="106.6406" x="556" y="403.2988">Shared : boolean</text><text fill="#000000" font-family="sans-serif" font-size="14" lengthAdjust="spacing" textLength="139.2754" x="556" y="420.9082">CreatedAt : timestamp</text><text fill="#000000" font-family="sans-serif" font-size="14" lengthAdjust="spacing" textLength="142.3994" x="556" y="438.5176">UpdatedAt : timestamp</text></g><!--class Profile--><g class="entity" data-qualified-name="Profile" data-source-line="56" id="ent0006"><rect fill="#F1F1F1" height="219.7031" rx="2.5" ry="2.5" style="stroke:#181818;stroke-width:0.5;" width="173.8408" x="990" y="234.5"/><text fill="#000000" font-family="sans-serif" font-size="14" lengthAdjust="spacing" textLength="39.6826" x="1057.0791" y="254.0332">Profile</text><line style="stroke:#181818;stroke-width:0.5;" x1="991" x2="1162.8408" y1="262.1094" y2="262.1094"/><text fill="#000000" font-family="sans-serif" font-size="14" lengthAdjust="spacing" textLength="94.9512" x="996" y="280.6426">Id : bigint &#171;PK&#187;</text><line style="stroke:#181818;stroke-width:1;" x1="991" x2="1162.8408" y1="287.7188" y2="287.7188"/><text fill="#000000" font-family="sans-serif" font-size="14" lengthAdjust="spacing" textLength="150.9375" x="996" y="306.252">FullName : varchar(255)</text><text fill="#000000" font-family="sans-serif" font-size="14" lengthAdjust="spacing" textLength="126.041" x="996" y="323.8613">Email : varchar(255)</text><text fill="#000000" font-family="sans-serif" font-size="14" lengthAdjust="spacing" textLength="133.8408" x="996" y="341.4707">School : varchar(255)</text><text fill="#000000" font-family="sans-serif" font-size="14" lengthAdjust="spacing" textLength="161.8408" x="996" y="359.0801">StudyMajor : varchar(255)</text><text fill="#000000" font-family="sans-serif" font-size="14" lengthAdjust="spacing" textLength="156.4063" x="996" y="376.6895">StudyYear : varchar(100)</text><text fill="#000000" font-family="sans-serif" font-size="14" lengthAdjust="spacing" textLength="157.958" x="996" y="394.2988">StudyType : varchar(100)</text><text fill="#000000" font-family="sans-serif" font-size="14" lengthAdjust="spacing" textLength="122.1514" x="996" y="411.9082">AvatarDataUrl : text</text><text fill="#000000" font-family="sans-serif" font-size="14" lengthAdjust="spacing" textLength="139.2754" x="996" y="429.5176">CreatedAt : timestamp</text><text fill="#000000" font-family="sans-serif" font-size="14" lengthAdjust="spacing" textLength="142.3994" x="996" y="447.127">UpdatedAt : timestamp</text></g><!--class AuditLog--><g class="entity" data-qualified-name="AuditLog" data-source-line="70" id="ent0007"><rect fill="#F1F1F1" height="166.875" rx="2.5" ry="2.5" style="stroke:#181818;stroke-width:0.5;" width="161.3857" x="663.5" y="514"/><text fill="#000000" font-family="sans-serif" font-size="14" lengthAdjust="spacing" textLength="55.2686" x="716.5586" y="533.5332">AuditLog</text><line style="stroke:#181818;stroke-width:0.5;" x1="664.5" x2="823.8857" y1="541.6094" y2="541.6094"/><text fill="#000000" font-family="sans-serif" font-size="14" lengthAdjust="spacing" textLength="94.9512" x="669.5" y="560.1426">Id : bigint &#171;PK&#187;</text><text fill="#000000" font-family="sans-serif" font-size="14" lengthAdjust="spacing" textLength="140.8613" x="669.5" y="577.752">SubjectId : bigint &#171;FK&#187;</text><text fill="#000000" font-family="sans-serif" font-size="14" lengthAdjust="spacing" textLength="91.8271" x="669.5" y="595.3613">EntityId : bigint</text><line style="stroke:#181818;stroke-width:1;" x1="664.5" x2="823.8857" y1="602.4375" y2="602.4375"/><text fill="#000000" font-family="sans-serif" font-size="14" lengthAdjust="spacing" textLength="149.3857" x="669.5" y="620.9707">EntityType : varchar(20)</text><text fill="#000000" font-family="sans-serif" font-size="14" lengthAdjust="spacing" textLength="122.1582" x="669.5" y="638.5801">Action : varchar(20)</text><text fill="#000000" font-family="sans-serif" font-size="14" lengthAdjust="spacing" textLength="87.9443" x="669.5" y="656.1895">Payload : json</text><text fill="#000000" font-family="sans-serif" font-size="14" lengthAdjust="spacing" textLength="139.2754" x="669.5" y="673.7988">CreatedAt : timestamp</text></g><!--link Subject to Task--><g class="link" data-entity-1="ent0002" data-entity-2="ent0003" data-link-type="crowfoot" data-source-line="81" id="lnk8"><path codeLine="81" d="M408.68,118.5 C296.45,118.5 109.66,118.5 109.66,118.5 C109.66,118.5 109.66,186.04 109.66,251.87" fill="none" id="Subject-Task" style="stroke:#181818;stroke-width:1;"/><line style="stroke:#181818;stroke-width:1;" x1="412.68" x2="412.68" y1="114.5" y2="122.5"/><line style="stroke:#181818;stroke-width:1;" x1="409.68" x2="409.68" y1="114.5" y2="122.5"/><line style="stroke:#181818;stroke-width:1;" x1="408.68" x2="416.68" y1="118.5" y2="118.5"/><line style="stroke:#181818;stroke-width:1;" x1="109.66" x2="115.66" y1="261.87" y2="269.87"/><line style="stroke:#181818;stroke-width:1;" x1="109.66" x2="103.66" y1="261.87" y2="269.87"/><line style="stroke:#181818;stroke-width:1;" x1="109.66" x2="109.66" y1="261.87" y2="269.87"/><ellipse cx="109.66" cy="255.87" fill="none" rx="4" ry="4" style="stroke:#181818;stroke-width:1;"/><polygon fill="#000000" points="152.9236,111.7125,162.3814,110.7121,159.9871,105.344,152.9236,111.7125" style="stroke:#000000;stroke-width:1;"/><text fill="#000000" font-family="sans-serif" font-size="13" lengthAdjust="spacing" textLength="20.96" x="166.49" y="114.9951">has</text></g><!--link Task to Subject--><g class="link" data-entity-1="ent0003" data-entity-2="ent0002" data-link-type="crowfoot" data-source-line="86" id="lnk12"><path codeLine="86" d="M58.33,251.93 C58.33,168.69 58.33,63.5 58.33,63.5 C58.33,63.5 283.73,63.5 408.86,63.5" fill="none" id="Task-Subject" style="stroke:#181818;stroke-width:1;"/><line style="stroke:#181818;stroke-width:1;" x1="58.33" x2="64.33" y1="261.93" y2="269.93"/><line style="stroke:#181818;stroke-width:1;" x1="58.33" x2="52.33" y1="261.93" y2="269.93"/><line style="stroke:#181818;stroke-width:1;" x1="58.33" x2="58.33" y1="261.93" y2="269.93"/><ellipse cx="58.33" cy="255.93" fill="none" rx="4" ry="4" style="stroke:#181818;stroke-width:1;"/><line style="stroke:#181818;stroke-width:1;" x1="412.86" x2="412.86" y1="59.5" y2="67.5"/><line style="stroke:#181818;stroke-width:1;" x1="409.86" x2="409.86" y1="59.5" y2="67.5"/><line style="stroke:#181818;stroke-width:1;" x1="408.86" x2="416.86" y1="63.5" y2="63.5"/><polygon fill="#000000" points="68.784,52.3084,59.4255,54.0024,62.2086,59.1797,68.784,52.3084" style="stroke:#000000;stroke-width:1;"/><text fill="#000000" font-family="sans-serif" font-size="13" lengthAdjust="spacing" textLength="60.709" x="73.38" y="59.9951">belongsTo</text></g><!--link Subject to Event--><g class="link" data-entity-1="ent0002" data-entity-2="ent0004" data-link-type="crowfoot" data-source-line="82" id="lnk9"><path codeLine="82" d="M422,182.02 C422,201.25 422,196 422,216.17" fill="none" id="Subject-Event" style="stroke:#181818;stroke-width:1;"/><line style="stroke:#181818;stroke-width:1;" x1="418" x2="426" y1="178.02" y2="178.02"/><line style="stroke:#181818;stroke-width:1;" x1="418" x2="426" y1="181.02" y2="181.02"/><line style="stroke:#181818;stroke-width:1;" x1="422" x2="422" y1="182.02" y2="174.02"/><line style="stroke:#181818;stroke-width:1;" x1="422" x2="428" y1="226.17" y2="234.17"/><line style="stroke:#181818;stroke-width:1;" x1="422" x2="416" y1="226.17" y2="234.17"/><line style="stroke:#181818;stroke-width:1;" x1="422" x2="422" y1="226.17" y2="234.17"/><ellipse cx="422" cy="220.17" fill="none" rx="4" ry="4" style="stroke:#181818;stroke-width:1;"/><polygon fill="#000000" points="392,200.2658,394.9389,191.2207,389.0611,191.2207,392,200.2658" style="stroke:#000000;stroke-width:1;"/><text fill="#000000" font-family="sans-serif" font-size="13" lengthAdjust="spacing" textLength="20.96" x="401" y="200.5851">has</text></g><!--link Event to Subject--><g class="link" data-entity-1="ent0004" data-entity-2="ent0002" data-link-type="crowfoot" data-source-line="87" id="lnk13"><path codeLine="87" d="M427,216.2 C427,196.12 427,201.47 427,182.31" fill="none" id="Event-Subject" style="stroke:#181818;stroke-width:1;"/><line style="stroke:#181818;stroke-width:1;" x1="427" x2="433" y1="226.2" y2="234.2"/><line style="stroke:#181818;stroke-width:1;" x1="427" x2="421" y1="226.2" y2="234.2"/><line style="stroke:#181818;stroke-width:1;" x1="427" x2="427" y1="226.2" y2="234.2"/><ellipse cx="427" cy="220.2" fill="none" rx="4" ry="4" style="stroke:#181818;stroke-width:1;"/><line style="stroke:#181818;stroke-width:1;" x1="423" x2="431" y1="178.31" y2="178.31"/><line style="stroke:#181818;stroke-width:1;" x1="423" x2="431" y1="181.31" y2="181.31"/><line style="stroke:#181818;stroke-width:1;" x1="427" x2="427" y1="182.31" y2="174.31"/><polygon fill="#000000" points="357,208.4258,354.0611,217.4709,359.9389,217.4709,357,208.4258" style="stroke:#000000;stroke-width:1;"/><text fill="#000000" font-family="sans-serif" font-size="13" lengthAdjust="spacing" textLength="60.709" x="366" y="218.7451">belongsTo</text></g><!--link Subject to FileRecord--><g class="link" data-entity-1="ent0002" data-entity-2="ent0005" data-link-type="crowfoot" data-source-line="83" id="lnk10"><path codeLine="83" d="M557,182.02 C557,204.14 557,202.27 557,225.22" fill="none" id="Subject-FileRecord" style="stroke:#181818;stroke-width:1;"/><line style="stroke:#181818;stroke-width:1;" x1="553" x2="561" y1="178.02" y2="178.02"/><line style="stroke:#181818;stroke-width:1;" x1="553" x2="561" y1="181.02" y2="181.02"/><line style="stroke:#181818;stroke-width:1;" x1="557" x2="557" y1="182.02" y2="174.02"/><line style="stroke:#181818;stroke-width:1;" x1="557" x2="563" y1="235.22" y2="243.22"/><line style="stroke:#181818;stroke-width:1;" x1="557" x2="551" y1="235.22" y2="243.22"/><line style="stroke:#181818;stroke-width:1;" x1="557" x2="557" y1="235.22" y2="243.22"/><ellipse cx="557" cy="229.22" fill="none" rx="4" ry="4" style="stroke:#181818;stroke-width:1;"/><polygon fill="#000000" points="527,204.7958,529.9389,195.7507,524.0611,195.7507,527,204.7958" style="stroke:#000000;stroke-width:1;"/><text fill="#000000" font-family="sans-serif" font-size="13" lengthAdjust="spacing" textLength="20.96" x="536" y="205.1151">has</text></g><!--link FileRecord to Subject--><g class="link" data-entity-1="ent0005" data-entity-2="ent0002" data-link-type="crowfoot" data-source-line="88" id="lnk14"><path codeLine="88" d="M564,225.38 C564,202.42 564,204.27 564,182.13" fill="none" id="FileRecord-Subject" style="stroke:#181818;stroke-width:1;"/><line style="stroke:#181818;stroke-width:1;" x1="564" x2="570" y1="235.38" y2="243.38"/><line style="stroke:#181818;stroke-width:1;" x1="564" x2="558" y1="235.38" y2="243.38"/><line style="stroke:#181818;stroke-width:1;" x1="564" x2="564" y1="235.38" y2="243.38"/><ellipse cx="564" cy="229.38" fill="none" rx="4" ry="4" style="stroke:#181818;stroke-width:1;"/><line style="stroke:#181818;stroke-width:1;" x1="560" x2="568" y1="178.13" y2="178.13"/><line style="stroke:#181818;stroke-width:1;" x1="560" x2="568" y1="181.13" y2="181.13"/><line style="stroke:#181818;stroke-width:1;" x1="564" x2="564" y1="182.13" y2="174.13"/><polygon fill="#000000" points="494,212.9358,491.0611,221.9809,496.9389,221.9809,494,212.9358" style="stroke:#000000;stroke-width:1;"/><text fill="#000000" font-family="sans-serif" font-size="13" lengthAdjust="spacing" textLength="60.709" x="503" y="223.2551">belongsTo</text></g><!--link Subject to AuditLog--><g class="link" data-entity-1="ent0002" data-entity-2="ent0007" data-link-type="crowfoot" data-source-line="84" id="lnk11"><path codeLine="84" d="M510.66,182.08 C510.66,316.18 510.66,556.5 510.66,556.5 C510.66,556.5 577.92,556.5 645.37,556.5" fill="none" id="Subject-AuditLog" style="stroke:#181818;stroke-width:1;"/><line style="stroke:#181818;stroke-width:1;" x1="506.66" x2="514.66" y1="178.08" y2="178.08"/><line style="stroke:#181818;stroke-width:1;" x1="506.66" x2="514.66" y1="181.08" y2="181.08"/><line style="stroke:#181818;stroke-width:1;" x1="510.66" x2="510.66" y1="182.08" y2="174.08"/><line style="stroke:#181818;stroke-width:1;" x1="655.37" x2="663.37" y1="556.5" y2="550.5"/><line style="stroke:#181818;stroke-width:1;" x1="655.37" x2="663.37" y1="556.5" y2="562.5"/><line style="stroke:#181818;stroke-width:1;" x1="655.37" x2="663.37" y1="556.5" y2="556.5"/><ellipse cx="649.37" cy="556.5" fill="none" rx="4" ry="4" style="stroke:#181818;stroke-width:1;"/><polygon fill="#000000" points="468.3527,437.5205,468.056,428.0146,462.5252,430.0045,468.3527,437.5205" style="stroke:#000000;stroke-width:1;"/><text fill="#000000" font-family="sans-serif" font-size="13" lengthAdjust="spacing" textLength="34.6709" x="475.66" y="438.1351">tracks</text></g><!--link AuditLog to Subject--><g class="link" data-entity-1="ent0007" data-entity-2="ent0002" data-link-type="crowfoot" data-source-line="89" id="lnk15"><path codeLine="89" d="M645.29,597.5 C564.89,597.5 471.33,597.5 471.33,597.5 C471.33,597.5 471.33,333.22 471.33,189.22" fill="none" id="AuditLog-Subject" style="stroke:#181818;stroke-width:1;"/><line style="stroke:#181818;stroke-width:1;" x1="655.29" x2="663.29" y1="597.5" y2="591.5"/><line style="stroke:#181818;stroke-width:1;" x1="655.29" x2="663.29" y1="597.5" y2="603.5"/><line style="stroke:#181818;stroke-width:1;" x1="655.29" x2="663.29" y1="597.5" y2="597.5"/><ellipse cx="649.29" cy="597.5" fill="none" rx="4" ry="4" style="stroke:#181818;stroke-width:1;"/><line style="stroke:#181818;stroke-width:1;" x1="471.33" x2="471.33" y1="185.22" y2="174.22"/><ellipse cx="471.33" cy="185.22" fill="none" rx="4" ry="4" style="stroke:#181818;stroke-width:1;"/><line style="stroke:#181818;stroke-width:1;" x1="467.33" x2="475.33" y1="178.22" y2="178.22"/><polygon fill="#000000" points="405.3701,486.4159,406.2119,495.8892,411.6193,493.5851,405.3701,486.4159" style="stroke:#000000;stroke-width:1;"/><text fill="#000000" font-family="sans-serif" font-size="13" lengthAdjust="spacing" textLength="54.9199" x="416.33" y="496.3351">relatedTo</text></g><!--link Profile to AuditLog--><g class="link" data-entity-1="ent0006" data-entity-2="ent0007" data-link-type="crowfoot" data-source-line="91" id="lnk16"><path codeLine="91" d="M981.67,451.5 C891.61,451.5 772.25,451.5 772.25,451.5 C772.25,451.5 772.25,463.22 772.25,495.84" fill="none" id="Profile-AuditLog" style="stroke:#181818;stroke-width:1;"/><line style="stroke:#181818;stroke-width:1;" x1="985.67" x2="985.67" y1="447.5" y2="455.5"/><line style="stroke:#181818;stroke-width:1;" x1="982.67" x2="982.67" y1="447.5" y2="455.5"/><line style="stroke:#181818;stroke-width:1;" x1="981.67" x2="989.67" y1="451.5" y2="451.5"/><line style="stroke:#181818;stroke-width:1;" x1="772.25" x2="778.25" y1="505.84" y2="513.84"/><line style="stroke:#181818;stroke-width:1;" x1="772.25" x2="766.25" y1="505.84" y2="513.84"/><line style="stroke:#181818;stroke-width:1;" x1="772.25" x2="772.25" y1="505.84" y2="513.84"/><ellipse cx="772.25" cy="499.84" fill="none" rx="4" ry="4" style="stroke:#181818;stroke-width:1;"/><polygon fill="#000000" points="728.8984,443.7115,738.3561,444.7131,737.1386,438.9627,728.8984,443.7115" style="stroke:#000000;stroke-width:1;"/><text fill="#000000" font-family="sans-serif" font-size="13" lengthAdjust="spacing" textLength="106.9517" x="742.79" y="447.9951">changesTrackedIn</text></g><!--link Task to AuditLog--><g class="link" data-entity-1="ent0003" data-entity-2="ent0007" data-link-type="crowfoot" data-source-line="92" id="lnk17"><path codeLine="92" d="M84,427.32 C84,514.72 84,639.5 84,639.5 C84,639.5 469.33,639.5 645.4,639.5" fill="none" id="Task-AuditLog" style="stroke:#181818;stroke-width:1;"/><line style="stroke:#181818;stroke-width:1;" x1="80" x2="88" y1="423.32" y2="423.32"/><line style="stroke:#181818;stroke-width:1;" x1="80" x2="88" y1="426.32" y2="426.32"/><line style="stroke:#181818;stroke-width:1;" x1="84" x2="84" y1="427.32" y2="419.32"/><line style="stroke:#181818;stroke-width:1;" x1="655.4" x2="663.4" y1="639.5" y2="633.5"/><line style="stroke:#181818;stroke-width:1;" x1="655.4" x2="663.4" y1="639.5" y2="645.5"/><line style="stroke:#181818;stroke-width:1;" x1="655.4" x2="663.4" y1="639.5" y2="639.5"/><ellipse cx="649.4" cy="639.5" fill="none" rx="4" ry="4" style="stroke:#181818;stroke-width:1;"/><polygon fill="#000000" points="152.2871,632.4435,144.8652,626.4966,142.7871,631.9948,152.2871,632.4435" style="stroke:#000000;stroke-width:1;"/><text fill="#000000" font-family="sans-serif" font-size="13" lengthAdjust="spacing" textLength="106.9517" x="156.61" y="635.9951">changesTrackedIn</text></g><!--link Event to AuditLog--><g class="link" data-entity-1="ent0004" data-entity-2="ent0007" data-link-type="crowfoot" data-source-line="93" id="lnk18"><path codeLine="93" d="M440.22,448.5 C537.34,448.5 682.33,448.5 682.33,448.5 C682.33,448.5 682.33,461.89 682.33,495.85" fill="none" id="Event-AuditLog" style="stroke:#181818;stroke-width:1;"/><line style="stroke:#181818;stroke-width:1;" x1="436.22" x2="436.22" y1="452.5" y2="444.5"/><line style="stroke:#181818;stroke-width:1;" x1="439.22" x2="439.22" y1="452.5" y2="444.5"/><line style="stroke:#181818;stroke-width:1;" x1="440.22" x2="432.22" y1="448.5" y2="448.5"/><line style="stroke:#181818;stroke-width:1;" x1="682.33" x2="688.33" y1="505.85" y2="513.85"/><line style="stroke:#181818;stroke-width:1;" x1="682.33" x2="676.33" y1="505.85" y2="513.85"/><line style="stroke:#181818;stroke-width:1;" x1="682.33" x2="682.33" y1="505.85" y2="513.85"/><ellipse cx="682.33" cy="499.85" fill="none" rx="4" ry="4" style="stroke:#181818;stroke-width:1;"/><polygon fill="#000000" points="478.857,458.6355,470.5442,454.0151,469.416,459.7837,478.857,458.6355" style="stroke:#000000;stroke-width:1;"/><text fill="#000000" font-family="sans-serif" font-size="13" lengthAdjust="spacing" textLength="106.9517" x="482.95" y="462.9951">changesTrackedIn</text></g><!--link FileRecord to AuditLog--><g class="link" data-entity-1="ent0005" data-entity-2="ent0007" data-link-type="crowfoot" data-source-line="94" id="lnk19"><path codeLine="94" d="M701.16,453.58 C701.16,476.16 701.16,473.85 701.16,495.64" fill="none" id="FileRecord-AuditLog" style="stroke:#181818;stroke-width:1;"/><line style="stroke:#181818;stroke-width:1;" x1="697.16" x2="705.16" y1="449.58" y2="449.58"/><line style="stroke:#181818;stroke-width:1;" x1="697.16" x2="705.16" y1="452.58" y2="452.58"/><line style="stroke:#181818;stroke-width:1;" x1="701.16" x2="701.16" y1="453.58" y2="445.58"/><line style="stroke:#181818;stroke-width:1;" x1="701.16" x2="707.16" y1="505.64" y2="513.64"/><line style="stroke:#181818;stroke-width:1;" x1="701.16" x2="695.16" y1="505.64" y2="513.64"/><line style="stroke:#181818;stroke-width:1;" x1="701.16" x2="701.16" y1="505.64" y2="513.64"/><ellipse cx="701.16" cy="499.64" fill="none" rx="4" ry="4" style="stroke:#181818;stroke-width:1;"/><polygon fill="#000000" points="585.16,493.7858,588.0989,484.7407,582.2211,484.7407,585.16,493.7858" style="stroke:#000000;stroke-width:1;"/><text fill="#000000" font-family="sans-serif" font-size="13" lengthAdjust="spacing" textLength="106.9517" x="594.16" y="494.1051">changesTrackedIn</text></g><?plantuml-src jLJ1Zjem4BtdAzpJTW-fQ5LwMAsGeYr8gBH29NleSR1d4uEJYHo3cYxxxxKJY09r418qbzZpNZBlZSVphj2GPC0q64biy64u3Cgrp0lGa34bSpHLWOoqIIb8fK36fUOAW-2EZNCZZSGo2D2jAhROB5V83NiDc7scWZsmfKnaRjZZu_pRQ5I7mp2itpyWGqlOWkOfwFUVXiFxEXuZy1Ir3teYqVtao-Sc7Dcjt6ATZaWXv0rR8nWKaR5n8pCi3MH5ZJmNmeEyjJvYADVdJUoT7gEJKuknDChhyIlbU3EruwrT_5-vDh-DEnbxOkOxXnbnrqIvxnTJVXHlZuvp9xxpmU3-od9CfCAVo4cBMzIahqiNye-t5OL0COCbAW_uP7Kdf2kFtONTtB21vvfUR1akkuYJZL9zDiSPIENrprEhr8kOZQY-mufqB_eBeGj-70mwOEpcZGUCjc10srQ4P-qI6_njhYnJj17Ip2Yvfb7g8LXrmAFQDkY9fSEXH_pqjko1ELIAmFroLTAvNh1M3ZDtjmj3Ucr6rmDBeMIZKwmP53rWvzhqCDfgMGKQ-DfHWZhV6uNXRjUEVri9L9GdPKoMqcGzI-daFijh5JWMTLaQbIjFpGeEtV-lRblbFC4oTl9HJ7FBhWrSn6oCN4Jj6Bg8_nS0?></g></svg>