<?plantuml 1.2026.2?><svg xmlns="http://www.w3.org/2000/svg" xmlns:xlink="http://www.w3.org/1999/xlink" contentStyleType="text/css" data-diagram-type="CLASS" height="1944px" preserveAspectRatio="none" style="width:3029px;height:1944px;background:#FFFFFF;" version="1.1" viewBox="0 0 3029 1944" width="3029px" zoomAndPan="magnify"><defs/><g><!--cluster Datov? j?dro--><g class="cluster" data-qualified-name="Datov. j.dro" data-source-line="26" id="ent0002"><path d="M1204.07,823.5 L1289.8698,823.5 A3.75,3.75 0 0 1 1292.3698,826 L1299.3698,847.1094 L3019.6,847.1094 A2.5,2.5 0 0 1 3022.1,849.6094 L3022.1,1492 A2.5,2.5 0 0 1 3019.6,1494.5 L1204.07,1494.5 A2.5,2.5 0 0 1 1201.57,1492 L1201.57,826 A2.5,2.5 0 0 1 1204.07,823.5" fill="none" style="stroke:#94A3B8;stroke-width:1.5;"/><line style="stroke:#94A3B8;stroke-width:1.5;" x1="1201.57" x2="1299.3698" y1="847.1094" y2="847.1094"/><text fill="#0F172A" font-family="sans-serif" font-size="14" font-weight="bold" lengthAdjust="spacing" textLength="84.7998" x="1205.57" y="840.0332">Datov&#233; j&#225;dro</text></g><!--cluster Home--><g class="cluster" data-qualified-name="Home" data-source-line="82" id="ent0013"><path d="M45.37,280.5 L85.2665,280.5 A3.75,3.75 0 0 1 87.7665,283 L94.7665,304.1094 L2051.11,304.1094 A2.5,2.5 0 0 1 2053.61,306.6094 L2053.61,422 A2.5,2.5 0 0 1 2051.11,424.5 L45.37,424.5 A2.5,2.5 0 0 1 42.87,422 L42.87,283 A2.5,2.5 0 0 1 45.37,280.5" fill="none" style="stroke:#94A3B8;stroke-width:1.5;"/><line style="stroke:#94A3B8;stroke-width:1.5;" x1="42.87" x2="94.7665" y1="304.1094" y2="304.1094"/><text fill="#0F172A" font-family="sans-serif" font-size="14" font-weight="bold" lengthAdjust="spacing" textLength="38.8965" x="46.87" y="297.0332">Home</text></g><!--cluster Kalend??--><g class="cluster" data-qualified-name="Kalend.." data-source-line="95" id="ent0018"><path d="M8.5,637.5 L69.4102,637.5 A3.75,3.75 0 0 1 71.9102,640 L78.9102,661.1094 L1839.56,661.1094 A2.5,2.5 0 0 1 1842.06,663.6094 L1842.06,795 A2.5,2.5 0 0 1 1839.56,797.5 L8.5,797.5 A2.5,2.5 0 0 1 6,795 L6,640 A2.5,2.5 0 0 1 8.5,637.5" fill="none" style="stroke:#94A3B8;stroke-width:1.5;"/><line style="stroke:#94A3B8;stroke-width:1.5;" x1="6" x2="78.9102" y1="661.1094" y2="661.1094"/><text fill="#0F172A" font-family="sans-serif" font-size="14" font-weight="bold" lengthAdjust="spacing" textLength="59.9102" x="10" y="654.0332">Kalend&#225;&#345;</text></g><!--cluster P?edm?ty--><g class="cluster" data-qualified-name="P.edm.ty" data-source-line="109" id="ent0023"><path d="M14.32,1524.5 L79.1266,1524.5 A3.75,3.75 0 0 1 81.6266,1527 L88.6266,1548.1094 L2056.93,1548.1094 A2.5,2.5 0 0 1 2059.43,1550.6094 L2059.43,1666 A2.5,2.5 0 0 1 2056.93,1668.5 L14.32,1668.5 A2.5,2.5 0 0 1 11.82,1666 L11.82,1527 A2.5,2.5 0 0 1 14.32,1524.5" fill="none" style="stroke:#94A3B8;stroke-width:1.5;"/><line style="stroke:#94A3B8;stroke-width:1.5;" x1="11.82" x2="88.6266" y1="1548.1094" y2="1548.1094"/><text fill="#0F172A" font-family="sans-serif" font-size="14" font-weight="bold" lengthAdjust="spacing" textLength="63.8066" x="15.82" y="1541.0332">P&#345;edm&#283;ty</text></g><!--cluster Soubory--><g class="cluster" data-qualified-name="Soubory" data-source-line="122" id="ent0028"><path d="M64.78,1793.5 L122.5593,1793.5 A3.75,3.75 0 0 1 125.0593,1796 L132.0593,1817.1094 L1839.56,1817.1094 A2.5,2.5 0 0 1 1842.06,1819.6094 L1842.06,1935 A2.5,2.5 0 0 1 1839.56,1937.5 L64.78,1937.5 A2.5,2.5 0 0 1 62.28,1935 L62.28,1796 A2.5,2.5 0 0 1 64.78,1793.5" fill="none" style="stroke:#94A3B8;stroke-width:1.5;"/><line style="stroke:#94A3B8;stroke-width:1.5;" x1="62.28" x2="132.0593" y1="1817.1094" y2="1817.1094"/><text fill="#0F172A" font-family="sans-serif" font-size="14" font-weight="bold" lengthAdjust="spacing" textLength="56.7793" x="66.28" y="1810.0332">Soubory</text></g><!--cluster Profil--><g class="cluster" data-qualified-name="Profil" data-source-line="135" id="ent0033"><path d="M39.55,65.5 L76.3293,65.5 A3.75,3.75 0 0 1 78.8293,68 L85.8293,89.1094 L1921.07,89.1094 A2.5,2.5 0 0 1 1923.57,91.6094 L1923.57,207 A2.5,2.5 0 0 1 1921.07,209.5 L39.55,209.5 A2.5,2.5 0 0 1 37.05,207 L37.05,68 A2.5,2.5 0 0 1 39.55,65.5" fill="none" style="stroke:#94A3B8;stroke-width:1.5;"/><line style="stroke:#94A3B8;stroke-width:1.5;" x1="37.05" x2="85.8293" y1="89.1094" y2="89.1094"/><text fill="#0F172A" font-family="sans-serif" font-size="14" font-weight="bold" lengthAdjust="spacing" textLength="35.7793" x="41.05" y="82.0332">Profil</text></g><!--class Subject--><g class="entity" data-qualified-name="Datov. j.dro.Subject" data-source-line="27" id="ent0003"><rect fill="#F1F1F1" height="123.6563" rx="2.5" ry="2.5" style="stroke:#181818;stroke-width:0.5;" width="119.3789" x="1434.66" y="1046.5"/><text fill="#000000" font-family="sans-serif" font-size="14" lengthAdjust="spacing" textLength="46.6963" x="1471.0013" y="1066.0332">Subject</text><line style="stroke:#181818;stroke-width:0.5;" x1="1435.66" x2="1553.0389" y1="1074.1094" y2="1074.1094"/><text fill="#000000" font-family="sans-serif" font-size="14" lengthAdjust="spacing" textLength="49.8135" x="1440.66" y="1092.6426">Id &#171;PK&#187;</text><text fill="#000000" font-family="sans-serif" font-size="14" lengthAdjust="spacing" textLength="37.3447" x="1440.66" y="1110.252">Name</text><text fill="#000000" font-family="sans-serif" font-size="14" lengthAdjust="spacing" textLength="51.3584" x="1440.66" y="1127.8613">Teacher</text><text fill="#000000" font-family="sans-serif" font-size="14" lengthAdjust="spacing" textLength="107.3789" x="1440.66" y="1145.4707">Code &#171;UNIQUE&#187;</text><text fill="#000000" font-family="sans-serif" font-size="14" lengthAdjust="spacing" textLength="54.4688" x="1440.66" y="1163.0801">Archived</text></g><!--class Task--><g class="entity" data-qualified-name="Datov. j.dro.Task" data-source-line="35" id="ent0004"><rect fill="#F1F1F1" height="106.0469" rx="2.5" ry="2.5" style="stroke:#181818;stroke-width:0.5;" width="107.7236" x="2696.16" y="1054.5"/><text fill="#000000" font-family="sans-serif" font-size="14" lengthAdjust="spacing" textLength="30.3379" x="2734.8529" y="1074.0332">Task</text><line style="stroke:#181818;stroke-width:0.5;" x1="2697.16" x2="2802.8836" y1="1082.1094" y2="1082.1094"/><text fill="#000000" font-family="sans-serif" font-size="14" lengthAdjust="spacing" textLength="49.8135" x="2702.16" y="1100.6426">Id &#171;PK&#187;</text><text fill="#000000" font-family="sans-serif" font-size="14" lengthAdjust="spacing" textLength="95.7236" x="2702.16" y="1118.252">SubjectId &#171;FK&#187;</text><text fill="#000000" font-family="sans-serif" font-size="14" lengthAdjust="spacing" textLength="26.4482" x="2702.16" y="1135.8613">Title</text><text fill="#000000" font-family="sans-serif" font-size="14" lengthAdjust="spacing" textLength="33.4688" x="2702.16" y="1153.4707">Done</text></g><!--class Event--><g class="entity" data-qualified-name="Datov. j.dro.Event" data-source-line="42" id="ent0005"><rect fill="#F1F1F1" height="158.875" rx="2.5" ry="2.5" style="stroke:#181818;stroke-width:0.5;" width="107.7236" x="2696.16" y="860"/><text fill="#000000" font-family="sans-serif" font-size="14" lengthAdjust="spacing" textLength="35.7998" x="2732.1219" y="879.5332">Event</text><line style="stroke:#181818;stroke-width:0.5;" x1="2697.16" x2="2802.8836" y1="887.6094" y2="887.6094"/><text fill="#000000" font-family="sans-serif" font-size="14" lengthAdjust="spacing" textLength="49.8135" x="2702.16" y="906.1426">Id &#171;PK&#187;</text><text fill="#000000" font-family="sans-serif" font-size="14" lengthAdjust="spacing" textLength="95.7236" x="2702.16" y="923.752">SubjectId &#171;FK&#187;</text><text fill="#000000" font-family="sans-serif" font-size="14" lengthAdjust="spacing" textLength="26.4482" x="2702.16" y="941.3613">Title</text><text fill="#000000" font-family="sans-serif" font-size="14" lengthAdjust="spacing" textLength="29.5723" x="2702.16" y="958.9707">Date</text><text fill="#000000" font-family="sans-serif" font-size="14" lengthAdjust="spacing" textLength="31.1104" x="2702.16" y="976.5801">Time</text><text fill="#000000" font-family="sans-serif" font-size="14" lengthAdjust="spacing" textLength="52.9307" x="2702.16" y="994.1895">Location</text><text fill="#000000" font-family="sans-serif" font-size="14" lengthAdjust="spacing" textLength="42.7998" x="2702.16" y="1011.7988">Accent</text></g><!--class FileRecord--><g class="entity" data-qualified-name="Datov. j.dro.FileRecord" data-source-line="52" id="ent0006"><rect fill="#F1F1F1" height="123.6563" rx="2.5" ry="2.5" style="stroke:#181818;stroke-width:0.5;" width="107.7236" x="2696.16" y="1354.5"/><text fill="#000000" font-family="sans-serif" font-size="14" lengthAdjust="spacing" textLength="67.6895" x="2716.1771" y="1374.0332">FileRecord</text><line style="stroke:#181818;stroke-width:0.5;" x1="2697.16" x2="2802.8836" y1="1382.1094" y2="1382.1094"/><text fill="#000000" font-family="sans-serif" font-size="14" lengthAdjust="spacing" textLength="49.8135" x="2702.16" y="1400.6426">Id &#171;PK&#187;</text><text fill="#000000" font-family="sans-serif" font-size="14" lengthAdjust="spacing" textLength="95.7236" x="2702.16" y="1418.252">SubjectId &#171;FK&#187;</text><text fill="#000000" font-family="sans-serif" font-size="14" lengthAdjust="spacing" textLength="37.3447" x="2702.16" y="1435.8613">Name</text><text fill="#000000" font-family="sans-serif" font-size="14" lengthAdjust="spacing" textLength="56.8066" x="2702.16" y="1453.4707">Category</text><text fill="#000000" font-family="sans-serif" font-size="14" lengthAdjust="spacing" textLength="45.1445" x="2702.16" y="1471.0801">Shared</text></g><!--class Profile--><g class="entity" data-qualified-name="Datov. j.dro.Profile" data-source-line="60" id="ent0007"><rect fill="#F1F1F1" height="123.6563" rx="2.5" ry="2.5" style="stroke:#181818;stroke-width:0.5;" width="82.8066" x="1452.66" y="887.5"/><text fill="#000000" font-family="sans-serif" font-size="14" lengthAdjust="spacing" textLength="39.6826" x="1474.222" y="907.0332">Profile</text><line style="stroke:#181818;stroke-width:0.5;" x1="1453.66" x2="1534.4666" y1="915.1094" y2="915.1094"/><text fill="#000000" font-family="sans-serif" font-size="14" lengthAdjust="spacing" textLength="49.8135" x="1458.66" y="933.6426">Id &#171;PK&#187;</text><text fill="#000000" font-family="sans-serif" font-size="14" lengthAdjust="spacing" textLength="59.9033" x="1458.66" y="951.252">FullName</text><text fill="#000000" font-family="sans-serif" font-size="14" lengthAdjust="spacing" textLength="35.0068" x="1458.66" y="968.8613">Email</text><text fill="#000000" font-family="sans-serif" font-size="14" lengthAdjust="spacing" textLength="70.8066" x="1458.66" y="986.4707">StudyMajor</text><text fill="#000000" font-family="sans-serif" font-size="14" lengthAdjust="spacing" textLength="65.3721" x="1458.66" y="1004.0801">StudyYear</text></g><!--class AuditLog--><g class="entity" data-qualified-name="Datov. j.dro.AuditLog" data-source-line="68" id="ent0008"><rect fill="#F1F1F1" height="123.6563" rx="2.5" ry="2.5" style="stroke:#181818;stroke-width:0.5;" width="107.7236" x="2696.16" y="1195.5"/><text fill="#000000" font-family="sans-serif" font-size="14" lengthAdjust="spacing" textLength="55.2686" x="2722.3875" y="1215.0332">AuditLog</text><line style="stroke:#181818;stroke-width:0.5;" x1="2697.16" x2="2802.8836" y1="1223.1094" y2="1223.1094"/><text fill="#000000" font-family="sans-serif" font-size="14" lengthAdjust="spacing" textLength="49.8135" x="2702.16" y="1241.6426">Id &#171;PK&#187;</text><text fill="#000000" font-family="sans-serif" font-size="14" lengthAdjust="spacing" textLength="95.7236" x="2702.16" y="1259.252">SubjectId &#171;FK&#187;</text><text fill="#000000" font-family="sans-serif" font-size="14" lengthAdjust="spacing" textLength="66.1377" x="2702.16" y="1276.8613">EntityType</text><text fill="#000000" font-family="sans-serif" font-size="14" lengthAdjust="spacing" textLength="38.9102" x="2702.16" y="1294.4707">Action</text><text fill="#000000" font-family="sans-serif" font-size="14" lengthAdjust="spacing" textLength="63.0342" x="2702.16" y="1312.0801">CreatedAt</text></g><!--class HomeTab--><g class="entity" data-qualified-name="Home.HomeTab" data-source-line="83" id="ent0014"><rect fill="#F1F1F1" height="53.2188" rx="2.5" ry="2.5" style="stroke:#181818;stroke-width:0.5;" width="78.9238" x="218.66" y="355"/><text fill="#000000" font-family="sans-serif" font-size="14" lengthAdjust="spacing" textLength="61.4688" x="227.3875" y="374.5332">HomeTab</text><line style="stroke:#181818;stroke-width:0.5;" x1="219.66" x2="296.5838" y1="382.6094" y2="382.6094"/><text fill="#000000" font-family="sans-serif" font-size="14" lengthAdjust="spacing" textLength="66.9238" x="224.66" y="401.1426">Key: home</text></g><g class="entity" data-qualified-name="Home.GMN15" data-source-line="87" id="ent0016"><path d="M1366.16,316.5 L1366.16,359.83 L297.88,363.83 L1366.16,367.83 L1366.16,408.2578 A0,0 0 0 0 1366.16,408.2578 L1621.9915,408.2578 A0,0 0 0 0 1621.9915,408.2578 L1621.9915,326.5 L1611.9915,316.5 L1366.16,316.5 A0,0 0 0 0 1366.16,316.5" fill="#EFF6FF" style="stroke:#2563EB;stroke-width:0.5;"/><path d="M1611.9915,316.5 L1611.9915,326.5 L1621.9915,326.5 L1611.9915,316.5" fill="#EFF6FF" style="stroke:#2563EB;stroke-width:0.5;"/><text fill="#1E3A8A" font-family="sans-serif" font-size="13" lengthAdjust="spacing" textLength="116.3525" x="1372.16" y="334.9951">Doporu&#269;en&#233; funkce:</text><text fill="#1E3A8A" font-family="sans-serif" font-size="13" lengthAdjust="spacing" textLength="150.3062" x="1372.16" y="351.3467">- personalizovan&#233; widgety</text><text fill="#1E3A8A" font-family="sans-serif" font-size="13" lengthAdjust="spacing" textLength="177.7852" x="1372.16" y="367.6982">- dne&#353;n&#237; p&#345;ehled &#250;kol&#367;/ud&#225;lost&#237;</text><text fill="#1E3A8A" font-family="sans-serif" font-size="13" lengthAdjust="spacing" textLength="234.8315" x="1372.16" y="384.0498">- rychl&#233; akce (p&#345;idat &#250;kol/ud&#225;lost/soubor)</text><text fill="#1E3A8A" font-family="sans-serif" font-size="13" lengthAdjust="spacing" textLength="136.1826" x="1372.16" y="400.4014">- weekly focus + priority</text></g><!--class CalendarTab--><g class="entity" data-qualified-name="Kalend...CalendarTab" data-source-line="96" id="ent0019"><rect fill="#F1F1F1" height="53.2188" rx="2.5" ry="2.5" style="stroke:#181818;stroke-width:0.5;" width="97.6064" x="209.16" y="728"/><text fill="#000000" font-family="sans-serif" font-size="14" lengthAdjust="spacing" textLength="80.9375" x="217.4945" y="747.5332">CalendarTab</text><line style="stroke:#181818;stroke-width:0.5;" x1="210.16" x2="305.7664" y1="755.6094" y2="755.6094"/><text fill="#000000" font-family="sans-serif" font-size="14" lengthAdjust="spacing" textLength="85.6064" x="215.16" y="774.1426">Key: calendar</text></g><g class="entity" data-qualified-name="Kalend...GMN20" data-source-line="100" id="ent0021"><path d="M1420.66,673.5 L1420.66,750.5 L307.37,754.5 L1420.66,758.5 L1420.66,781.6094 A0,0 0 0 0 1420.66,781.6094 L1567.3817,781.6094 A0,0 0 0 0 1567.3817,781.6094 L1567.3817,683.5 L1557.3817,673.5 L1420.66,673.5 A0,0 0 0 0 1420.66,673.5" fill="#EFF6FF" style="stroke:#2563EB;stroke-width:0.5;"/><path d="M1557.3817,673.5 L1557.3817,683.5 L1567.3817,683.5 L1557.3817,673.5" fill="#EFF6FF" style="stroke:#2563EB;stroke-width:0.5;"/><text fill="#1E3A8A" font-family="sans-serif" font-size="13" lengthAdjust="spacing" textLength="116.3525" x="1426.66" y="691.9951">Doporu&#269;en&#233; funkce:</text><text fill="#1E3A8A" font-family="sans-serif" font-size="13" lengthAdjust="spacing" textLength="119.9707" x="1426.66" y="708.3467">- opakovan&#233; ud&#225;losti</text><text fill="#1E3A8A" font-family="sans-serif" font-size="13" lengthAdjust="spacing" textLength="71.519" x="1426.66" y="724.6982">- p&#345;ipom&#237;nky</text><text fill="#1E3A8A" font-family="sans-serif" font-size="13" lengthAdjust="spacing" textLength="123.5571" x="1426.66" y="741.0498">- drag &amp; drop term&#237;n&#367;</text><text fill="#1E3A8A" font-family="sans-serif" font-size="13" lengthAdjust="spacing" textLength="125.7217" x="1426.66" y="757.4014">- filtrace dle p&#345;edm&#283;tu</text><text fill="#1E3A8A" font-family="sans-serif" font-size="13" lengthAdjust="spacing" textLength="86.7026" x="1426.66" y="773.7529">- detekce koliz&#237;</text></g><!--class SubjectsTab--><g class="entity" data-qualified-name="P.edm.ty.SubjectsTab" data-source-line="110" id="ent0024"><rect fill="#F1F1F1" height="53.2188" rx="2.5" ry="2.5" style="stroke:#181818;stroke-width:0.5;" width="95.2617" x="210.66" y="1561"/><text fill="#000000" font-family="sans-serif" font-size="14" lengthAdjust="spacing" textLength="77.8203" x="219.3807" y="1580.5332">SubjectsTab</text><line style="stroke:#181818;stroke-width:0.5;" x1="211.66" x2="304.9217" y1="1588.6094" y2="1588.6094"/><text fill="#000000" font-family="sans-serif" font-size="14" lengthAdjust="spacing" textLength="83.2617" x="216.66" y="1607.1426">Key: subjects</text></g><g class="entity" data-qualified-name="P.edm.ty.GMN25" data-source-line="114" id="ent0026"><path d="M1364.66,1560.5 L1364.66,1583.5 L305.85,1587.5 L1364.66,1591.5 L1364.66,1652.2578 A0,0 0 0 0 1364.66,1652.2578 L1624.1097,1652.2578 A0,0 0 0 0 1624.1097,1652.2578 L1624.1097,1570.5 L1614.1097,1560.5 L1364.66,1560.5 A0,0 0 0 0 1364.66,1560.5" fill="#EFF6FF" style="stroke:#2563EB;stroke-width:0.5;"/><path d="M1614.1097,1560.5 L1614.1097,1570.5 L1624.1097,1570.5 L1614.1097,1560.5" fill="#EFF6FF" style="stroke:#2563EB;stroke-width:0.5;"/><text fill="#1E3A8A" font-family="sans-serif" font-size="13" lengthAdjust="spacing" textLength="116.3525" x="1370.66" y="1578.9951">Doporu&#269;en&#233; funkce:</text><text fill="#1E3A8A" font-family="sans-serif" font-size="13" lengthAdjust="spacing" textLength="238.4497" x="1370.66" y="1595.3467">- detail p&#345;edm&#283;tu (&#250;koly/ud&#225;losti/soubory)</text><text fill="#1E3A8A" font-family="sans-serif" font-size="13" lengthAdjust="spacing" textLength="109.8398" x="1370.66" y="1611.6982">- archivace/obnova</text><text fill="#1E3A8A" font-family="sans-serif" font-size="13" lengthAdjust="spacing" textLength="117.0508" x="1370.66" y="1628.0498">- progress p&#345;edm&#283;tu</text><text fill="#1E3A8A" font-family="sans-serif" font-size="13" lengthAdjust="spacing" textLength="106.9199" x="1370.66" y="1644.4014">- sylabus a miln&#237;ky</text></g><!--class FilesTab--><g class="entity" data-qualified-name="Soubory.FilesTab" data-source-line="123" id="ent0029"><rect fill="#F1F1F1" height="53.2188" rx="2.5" ry="2.5" style="stroke:#181818;stroke-width:0.5;" width="68.7998" x="223.66" y="1830"/><text fill="#000000" font-family="sans-serif" font-size="14" lengthAdjust="spacing" textLength="53.6826" x="231.2186" y="1849.5332">FilesTab</text><line style="stroke:#181818;stroke-width:0.5;" x1="224.66" x2="291.4598" y1="1857.6094" y2="1857.6094"/><text fill="#000000" font-family="sans-serif" font-size="14" lengthAdjust="spacing" textLength="56.7998" x="229.66" y="1876.1426">Key: files</text></g><g class="entity" data-qualified-name="Soubory.GMN30" data-source-line="127" id="ent0031"><path d="M1420.66,1829.5 L1420.66,1868.4 L292.83,1872.4 L1420.66,1876.4 L1420.66,1921.2578 A0,0 0 0 0 1420.66,1921.2578 L1568.1117,1921.2578 A0,0 0 0 0 1568.1117,1921.2578 L1568.1117,1839.5 L1558.1117,1829.5 L1420.66,1829.5 A0,0 0 0 0 1420.66,1829.5" fill="#EFF6FF" style="stroke:#2563EB;stroke-width:0.5;"/><path d="M1558.1117,1829.5 L1558.1117,1839.5 L1568.1117,1839.5 L1558.1117,1829.5" fill="#EFF6FF" style="stroke:#2563EB;stroke-width:0.5;"/><text fill="#1E3A8A" font-family="sans-serif" font-size="13" lengthAdjust="spacing" textLength="116.3525" x="1426.66" y="1847.9951">Doporu&#269;en&#233; funkce:</text><text fill="#1E3A8A" font-family="sans-serif" font-size="13" lengthAdjust="spacing" textLength="114.8926" x="1426.66" y="1864.3467">- verzov&#225;n&#237; soubor&#367;</text><text fill="#1E3A8A" font-family="sans-serif" font-size="13" lengthAdjust="spacing" textLength="84.8999" x="1426.66" y="1880.6982">- tagy + fulltext</text><text fill="#1E3A8A" font-family="sans-serif" font-size="13" lengthAdjust="spacing" textLength="126.4517" x="1426.66" y="1897.0498">- n&#225;hled PDF/obr&#225;zk&#367;</text><text fill="#1E3A8A" font-family="sans-serif" font-size="13" lengthAdjust="spacing" textLength="105.4854" x="1426.66" y="1913.4014">- sd&#237;len&#237; s expirac&#237;</text></g><!--class ProfileTab--><g class="entity" data-qualified-name="Profil.ProfileTab" data-source-line="136" id="ent0034"><rect fill="#F1F1F1" height="53.2188" rx="2.5" ry="2.5" style="stroke:#181818;stroke-width:0.5;" width="82.0342" x="217.16" y="140"/><text fill="#000000" font-family="sans-serif" font-size="14" lengthAdjust="spacing" textLength="63.8066" x="226.2738" y="159.5332">ProfileTab</text><line style="stroke:#181818;stroke-width:0.5;" x1="218.16" x2="298.1942" y1="167.6094" y2="167.6094"/><text fill="#000000" font-family="sans-serif" font-size="14" lengthAdjust="spacing" textLength="70.0342" x="223.16" y="186.1426">Key: profile</text></g><g class="entity" data-qualified-name="Profil.GMN35" data-source-line="140" id="ent0036"><path d="M1399.66,101.5 L1399.66,193.2578 L1589.0062,193.2578 L1589.0062,111.5 L1579.0062,101.5 L1399.66,101.5" fill="#EFF6FF" style="stroke:#2563EB;stroke-width:0.5;"/><path d="M1579.0062,101.5 L1579.0062,111.5 L1589.0062,111.5 L1579.0062,101.5" fill="#EFF6FF" style="stroke:#2563EB;stroke-width:1;"/><text fill="#1E3A8A" font-family="sans-serif" font-size="13" lengthAdjust="spacing" textLength="116.3525" x="1405.66" y="119.9951">Doporu&#269;en&#233; funkce:</text><text fill="#1E3A8A" font-family="sans-serif" font-size="13" lengthAdjust="spacing" textLength="132.2344" x="1405.66" y="136.3467">- notifika&#269;n&#237; preference</text><text fill="#1E3A8A" font-family="sans-serif" font-size="13" lengthAdjust="spacing" textLength="121.3862" x="1405.66" y="152.6982">- timezone/lokalizace</text><text fill="#1E3A8A" font-family="sans-serif" font-size="13" lengthAdjust="spacing" textLength="168.3462" x="1405.66" y="169.0498">- bezpe&#269;nost (2FA, sessions)</text><text fill="#1E3A8A" font-family="sans-serif" font-size="13" lengthAdjust="spacing" textLength="65.7554" x="1405.66" y="185.4014">- export dat</text></g><g class="entity" data-qualified-name="GMN55" data-source-line="171" id="ent0056"><path d="M1284.66,6 L1284.66,48.7031 L1703.8294,48.7031 L1703.8294,16 L1693.8294,6 L1284.66,6" fill="#EFF6FF" style="stroke:#2563EB;stroke-width:0.5;"/><path d="M1693.8294,6 L1693.8294,16 L1703.8294,16 L1693.8294,6" fill="#EFF6FF" style="stroke:#2563EB;stroke-width:1;"/><text fill="#1E3A8A" font-family="sans-serif" font-size="13" lengthAdjust="spacing" textLength="398.1694" x="1290.66" y="24.4951">Zjednodu&#353;en&#253; ERD: m&#233;n&#283; atribut&#367;, jasn&#233; rozd&#283;len&#237; podle z&#225;lo&#382;ek UI.</text><text fill="#1E3A8A" font-family="sans-serif" font-size="13" lengthAdjust="spacing" textLength="296.2515" x="1290.66" y="40.8467">Pln&#233; sch&#233;ma z&#367;st&#225;v&#225; v pb138-erd-project-full.puml.</text></g><!--link Subject to Task--><g class="link" data-entity-1="ent0003" data-entity-2="ent0004" data-link-type="crowfoot" data-source-line="76" id="lnk9"><path codeLine="76" d="M1561.89,1107.5 C1775.55,1107.5 2473.9,1107.5 2678.15,1107.5" fill="none" id="Subject-Task" style="stroke:#181818;stroke-width:1;"/><line style="stroke:#181818;stroke-width:1;" x1="1557.89" x2="1557.89" y1="1111.5" y2="1103.5"/><line style="stroke:#181818;stroke-width:1;" x1="1560.89" x2="1560.89" y1="1111.5" y2="1103.5"/><line style="stroke:#181818;stroke-width:1;" x1="1561.89" x2="1553.89" y1="1107.5" y2="1107.5"/><line style="stroke:#181818;stroke-width:1;" x1="2688.15" x2="2696.15" y1="1107.5" y2="1101.5"/><line style="stroke:#181818;stroke-width:1;" x1="2688.15" x2="2696.15" y1="1107.5" y2="1113.5"/><line style="stroke:#181818;stroke-width:1;" x1="2688.15" x2="2696.15" y1="1107.5" y2="1107.5"/><ellipse cx="2682.15" cy="1107.5" fill="none" rx="4" ry="4" style="stroke:#181818;stroke-width:1;"/></g><!--link Subject to Event--><g class="link" data-entity-1="ent0003" data-entity-2="ent0005" data-link-type="crowfoot" data-source-line="77" id="lnk10"><path codeLine="77" d="M1545.16,1038.37 C1545.16,1021.84 1545.16,1016.5 1545.16,1016.5 C1545.16,1016.5 2443.57,1016.5 2678.04,1016.5" fill="none" id="Subject-Event" style="stroke:#181818;stroke-width:1;"/><line style="stroke:#181818;stroke-width:1;" x1="1549.16" x2="1541.16" y1="1042.37" y2="1042.37"/><line style="stroke:#181818;stroke-width:1;" x1="1549.16" x2="1541.16" y1="1039.37" y2="1039.37"/><line style="stroke:#181818;stroke-width:1;" x1="1545.16" x2="1545.16" y1="1038.37" y2="1046.37"/><line style="stroke:#181818;stroke-width:1;" x1="2688.04" x2="2696.04" y1="1016.5" y2="1010.5"/><line style="stroke:#181818;stroke-width:1;" x1="2688.04" x2="2696.04" y1="1016.5" y2="1022.5"/><line style="stroke:#181818;stroke-width:1;" x1="2688.04" x2="2696.04" y1="1016.5" y2="1016.5"/><ellipse cx="2682.04" cy="1016.5" fill="none" rx="4" ry="4" style="stroke:#181818;stroke-width:1;"/></g><!--link Subject to FileRecord--><g class="link" data-entity-1="ent0003" data-entity-2="ent0006" data-link-type="crowfoot" data-source-line="78" id="lnk11"><path codeLine="78" d="M1494.16,1178.63 C1494.16,1258.58 1494.16,1379.3 1494.16,1379.3 C1494.16,1379.3 2436.71,1379.3 2677.79,1379.3" fill="none" id="Subject-FileRecord" style="stroke:#181818;stroke-width:1;"/><line style="stroke:#181818;stroke-width:1;" x1="1490.16" x2="1498.16" y1="1174.63" y2="1174.63"/><line style="stroke:#181818;stroke-width:1;" x1="1490.16" x2="1498.16" y1="1177.63" y2="1177.63"/><line style="stroke:#181818;stroke-width:1;" x1="1494.16" x2="1494.16" y1="1178.63" y2="1170.63"/><line style="stroke:#181818;stroke-width:1;" x1="2687.79" x2="2695.79" y1="1379.3" y2="1373.3"/><line style="stroke:#181818;stroke-width:1;" x1="2687.79" x2="2695.79" y1="1379.3" y2="1385.3"/><line style="stroke:#181818;stroke-width:1;" x1="2687.79" x2="2695.79" y1="1379.3" y2="1379.3"/><ellipse cx="2681.79" cy="1379.3" fill="none" rx="4" ry="4" style="stroke:#181818;stroke-width:1;"/></g><!--link Subject to AuditLog--><g class="link" data-entity-1="ent0003" data-entity-2="ent0008" data-link-type="crowfoot" data-source-line="79" id="lnk12"><path codeLine="79" d="M1561.9,1165.5 C1813.77,1165.5 2768.16,1165.5 2768.16,1165.5 C2768.16,1165.5 2768.16,1160.84 2768.16,1177.37" fill="none" id="Subject-AuditLog" style="stroke:#181818;stroke-width:1;"/><line style="stroke:#181818;stroke-width:1;" x1="1557.9" x2="1557.9" y1="1169.5" y2="1161.5"/><line style="stroke:#181818;stroke-width:1;" x1="1560.9" x2="1560.9" y1="1169.5" y2="1161.5"/><line style="stroke:#181818;stroke-width:1;" x1="1561.9" x2="1553.9" y1="1165.5" y2="1165.5"/><line style="stroke:#181818;stroke-width:1;" x1="2768.16" x2="2774.16" y1="1187.37" y2="1195.37"/><line style="stroke:#181818;stroke-width:1;" x1="2768.16" x2="2762.16" y1="1187.37" y2="1195.37"/><line style="stroke:#181818;stroke-width:1;" x1="2768.16" x2="2768.16" y1="1187.37" y2="1195.37"/><ellipse cx="2768.16" cy="1181.37" fill="none" rx="4" ry="4" style="stroke:#181818;stroke-width:1;"/></g><!--link ProfileTab to GMN35--><g class="link" data-entity-1="ent0034" data-entity-2="ent0036" data-link-type="association" data-source-line="140" id="lnk37"><path d="M299.28,153.25 C472.91,153.25 1148.54,153.25 1399.56,153.25" fill="none" id="ProfileTab-GMN35" style="stroke:#181818;stroke-width:1;stroke-dasharray:7,7;"/></g><!--link HomeTab to Task--><g class="link" data-entity-1="ent0014" data-entity-2="ent0004" data-link-type="dependency" data-source-line="148" id="lnk38"><path codeLine="148" d="M297.87,381.5 C489.81,381.5 1312.16,381.5 1312.16,381.5 C1312.16,381.5 1312.16,1032.75 1312.16,1032.75 C1312.16,1032.75 2750.16,1032.75 2750.16,1032.75 C2750.16,1032.75 2750.16,1036.2 2750.16,1048.37" fill="none" id="HomeTab-to-Task" style="stroke:#181818;stroke-width:1;stroke-dasharray:7,7;"/><polygon fill="#181818" points="2750.16,1054.37,2754.16,1045.37,2750.16,1049.37,2746.16,1045.37,2750.16,1054.37" style="stroke:#181818;stroke-width:1;"/><text fill="#000000" font-family="sans-serif" font-size="13" lengthAdjust="spacing" textLength="17.3418" x="1294.16" y="944.2851">&#269;te</text></g><!--link HomeTab to Event--><g class="link" data-entity-1="ent0014" data-entity-2="ent0005" data-link-type="dependency" data-source-line="149" id="lnk39"><path codeLine="149" d="M297.88,372.67 C492.72,372.67 1338.16,372.67 1338.16,372.67 C1338.16,372.67 1338.16,869.17 1338.16,869.17 C1338.16,869.17 2431.4,869.17 2690.1,869.17" fill="none" id="HomeTab-to-Event" style="stroke:#181818;stroke-width:1;stroke-dasharray:7,7;"/><polygon fill="#181818" points="2696.1,869.17,2687.1,865.17,2691.1,869.17,2687.1,873.17,2696.1,869.17" style="stroke:#181818;stroke-width:1;"/><text fill="#000000" font-family="sans-serif" font-size="13" lengthAdjust="spacing" textLength="17.3418" x="1320.16" y="794.2451">&#269;te</text></g><!--link HomeTab to Subject--><g class="link" data-entity-1="ent0014" data-entity-2="ent0003" data-link-type="dependency" data-source-line="150" id="lnk40"><path codeLine="150" d="M297.79,390.33 C456.96,390.33 1041.16,390.33 1041.16,390.33 C1041.16,390.33 1041.16,1071.3 1041.16,1071.3 C1041.16,1071.3 1305.46,1071.3 1428.47,1071.3" fill="none" id="HomeTab-to-Subject" style="stroke:#181818;stroke-width:1;stroke-dasharray:7,7;"/><polygon fill="#181818" points="1434.47,1071.3,1425.47,1067.3,1429.47,1071.3,1425.47,1075.3,1434.47,1071.3" style="stroke:#181818;stroke-width:1;"/><text fill="#000000" font-family="sans-serif" font-size="13" lengthAdjust="spacing" textLength="17.3418" x="1023.16" y="570.2851">&#269;te</text></g><!--link HomeTab to FileRecord--><g class="link" data-entity-1="ent0014" data-entity-2="ent0006" data-link-type="dependency" data-source-line="151" id="lnk41"><path codeLine="151" d="M298.05,399.17 C348.86,399.17 430.16,399.17 430.16,399.17 C430.16,399.17 430.16,1404.1 430.16,1404.1 C430.16,1404.1 2340.86,1404.1 2689.95,1404.1" fill="none" id="HomeTab-to-FileRecord" style="stroke:#181818;stroke-width:1;stroke-dasharray:7,7;"/><polygon fill="#181818" points="2695.95,1404.1,2686.95,1400.1,2690.95,1404.1,2686.95,1408.1,2695.95,1404.1" style="stroke:#181818;stroke-width:1;"/><text fill="#000000" font-family="sans-serif" font-size="13" lengthAdjust="spacing" textLength="17.3418" x="976.53" y="1418.5951">&#269;te</text></g><!--link CalendarTab to Event--><g class="link" data-entity-1="ent0019" data-entity-2="ent0005" data-link-type="dependency" data-source-line="153" id="lnk42"><path codeLine="153" d="M295.16,781.07 C295.16,817.45 295.16,878.33 295.16,878.33 C295.16,878.33 2329.39,878.33 2690.02,878.33" fill="none" id="CalendarTab-to-Event" style="stroke:#181818;stroke-width:1;stroke-dasharray:7,7;"/><polygon fill="#181818" points="2696.02,878.33,2687.02,874.33,2691.02,878.33,2687.02,882.33,2696.02,878.33" style="stroke:#181818;stroke-width:1;"/><text fill="#000000" font-family="sans-serif" font-size="13" lengthAdjust="spacing" textLength="37.5527" x="1408.96" y="892.8251">CRUD</text></g><!--link CalendarTab to Subject--><g class="link" data-entity-1="ent0019" data-entity-2="ent0003" data-link-type="dependency" data-source-line="154" id="lnk43"><path codeLine="154" d="M285.16,781.02 C285.16,861.28 285.16,1096.1 285.16,1096.1 C285.16,1096.1 1185.27,1096.1 1428.62,1096.1" fill="none" id="CalendarTab-to-Subject" style="stroke:#181818;stroke-width:1;stroke-dasharray:7,7;"/><polygon fill="#181818" points="1434.62,1096.1,1425.62,1092.1,1429.62,1096.1,1425.62,1100.1,1434.62,1096.1" style="stroke:#181818;stroke-width:1;"/><text fill="#000000" font-family="sans-serif" font-size="13" lengthAdjust="spacing" textLength="50.5781" x="651.35" y="1110.5951">p&#345;i&#345;azen&#237;</text></g><!--link CalendarTab to AuditLog--><g class="link" data-entity-1="ent0019" data-entity-2="ent0008" data-link-type="dependency" data-source-line="155" id="lnk44"><path codeLine="155" d="M232.16,781.23 C232.16,883.6 232.16,1245.1 232.16,1245.1 C232.16,1245.1 2324.36,1245.1 2690.11,1245.1" fill="none" id="CalendarTab-to-AuditLog" style="stroke:#181818;stroke-width:1;stroke-dasharray:7,7;"/><polygon fill="#181818" points="2696.11,1245.1,2687.11,1241.1,2691.11,1245.1,2687.11,1249.1,2696.11,1245.1" style="stroke:#181818;stroke-width:1;"/><text fill="#000000" font-family="sans-serif" font-size="13" lengthAdjust="spacing" textLength="41.9072" x="1190.2" y="1259.5951">historie</text></g><!--link SubjectsTab to Subject--><g class="link" data-entity-1="ent0024" data-entity-2="ent0003" data-link-type="dependency" data-source-line="157" id="lnk45"><path codeLine="157" d="M243.16,1560.74 C243.16,1461.59 243.16,1120.9 243.16,1120.9 C243.16,1120.9 1178.99,1120.9 1428.24,1120.9" fill="none" id="SubjectsTab-to-Subject" style="stroke:#181818;stroke-width:1;stroke-dasharray:7,7;"/><polygon fill="#181818" points="1434.24,1120.9,1425.24,1116.9,1429.24,1120.9,1425.24,1124.9,1434.24,1120.9" style="stroke:#181818;stroke-width:1;"/><text fill="#000000" font-family="sans-serif" font-size="13" lengthAdjust="spacing" textLength="37.5527" x="580.78" y="1135.3951">CRUD</text></g><!--link SubjectsTab to Task--><g class="link" data-entity-1="ent0024" data-entity-2="ent0004" data-link-type="dependency" data-source-line="158" id="lnk46"><path codeLine="158" d="M253.16,1560.96 C253.16,1470.97 253.16,1183 253.16,1183 C253.16,1183 2732.16,1183 2732.16,1183 C2732.16,1183 2732.16,1179.25 2732.16,1166.76" fill="none" id="SubjectsTab-to-Task" style="stroke:#181818;stroke-width:1;stroke-dasharray:7,7;"/><polygon fill="#181818" points="2732.16,1160.76,2728.16,1169.76,2732.16,1165.76,2736.16,1169.76,2732.16,1160.76" style="stroke:#181818;stroke-width:1;"/><text fill="#000000" font-family="sans-serif" font-size="13" lengthAdjust="spacing" textLength="41.9136" x="1272.8" y="1197.4951">kontext</text></g><!--link SubjectsTab to Event--><g class="link" data-entity-1="ent0024" data-entity-2="ent0005" data-link-type="dependency" data-source-line="159" id="lnk47"><path codeLine="159" d="M222.16,1560.99 C222.16,1448.2 222.16,1014 222.16,1014 C222.16,1014 2322.69,1014 2689.89,1014" fill="none" id="SubjectsTab-to-Event" style="stroke:#181818;stroke-width:1;stroke-dasharray:7,7;"/><polygon fill="#181818" points="2695.89,1014,2686.89,1010,2690.89,1014,2686.89,1018,2695.89,1014" style="stroke:#181818;stroke-width:1;"/><text fill="#000000" font-family="sans-serif" font-size="13" lengthAdjust="spacing" textLength="41.9136" x="1143.53" y="1028.4951">kontext</text></g><!--link SubjectsTab to FileRecord--><g class="link" data-entity-1="ent0024" data-entity-2="ent0006" data-link-type="dependency" data-source-line="160" id="lnk48"><path codeLine="160" d="M274.16,1560.95 C274.16,1515.8 274.16,1428.9 274.16,1428.9 C274.16,1428.9 2328.05,1428.9 2690.14,1428.9" fill="none" id="SubjectsTab-to-FileRecord" style="stroke:#181818;stroke-width:1;stroke-dasharray:7,7;"/><polygon fill="#181818" points="2696.14,1428.9,2687.14,1424.9,2691.14,1428.9,2687.14,1432.9,2696.14,1428.9" style="stroke:#181818;stroke-width:1;"/><text fill="#000000" font-family="sans-serif" font-size="13" lengthAdjust="spacing" textLength="41.9136" x="1377.12" y="1443.3951">kontext</text></g><!--link SubjectsTab to AuditLog--><g class="link" data-entity-1="ent0024" data-entity-2="ent0008" data-link-type="dependency" data-source-line="161" id="lnk49"><path codeLine="161" d="M264.16,1560.97 C264.16,1484.64 264.16,1269.9 264.16,1269.9 C264.16,1269.9 2326.37,1269.9 2689.92,1269.9" fill="none" id="SubjectsTab-to-AuditLog" style="stroke:#181818;stroke-width:1;stroke-dasharray:7,7;"/><polygon fill="#181818" points="2695.92,1269.9,2686.92,1265.9,2690.92,1269.9,2686.92,1273.9,2695.92,1269.9" style="stroke:#181818;stroke-width:1;"/><text fill="#000000" font-family="sans-serif" font-size="13" lengthAdjust="spacing" textLength="41.9072" x="1292.51" y="1284.3951">historie</text></g><!--link FilesTab to FileRecord--><g class="link" data-entity-1="ent0029" data-entity-2="ent0006" data-link-type="dependency" data-source-line="163" id="lnk50"><path codeLine="163" d="M292.71,1861.8 C428.51,1861.8 918.16,1861.8 918.16,1861.8 C918.16,1861.8 918.16,1453.7 918.16,1453.7 C918.16,1453.7 2386.11,1453.7 2689.83,1453.7" fill="none" id="FilesTab-to-FileRecord" style="stroke:#181818;stroke-width:1;stroke-dasharray:7,7;"/><polygon fill="#181818" points="2695.83,1453.7,2686.83,1449.7,2690.83,1453.7,2686.83,1457.7,2695.83,1453.7" style="stroke:#181818;stroke-width:1;"/><text fill="#000000" font-family="sans-serif" font-size="13" lengthAdjust="spacing" textLength="37.5527" x="1252.22" y="1468.1951">CRUD</text></g><!--link FilesTab to Subject--><g class="link" data-entity-1="ent0029" data-entity-2="ent0003" data-link-type="dependency" data-source-line="164" id="lnk51"><path codeLine="164" d="M292.91,1840.6 C392.89,1840.6 674.16,1840.6 674.16,1840.6 C674.16,1840.6 674.16,1145.7 674.16,1145.7 C674.16,1145.7 1239.83,1145.7 1428.53,1145.7" fill="none" id="FilesTab-to-Subject" style="stroke:#181818;stroke-width:1;stroke-dasharray:7,7;"/><polygon fill="#181818" points="1434.53,1145.7,1425.53,1141.7,1429.53,1145.7,1425.53,1149.7,1434.53,1145.7" style="stroke:#181818;stroke-width:1;"/><text fill="#000000" font-family="sans-serif" font-size="13" lengthAdjust="spacing" textLength="34.6899" x="639.16" y="1318.0851">vazba</text></g><!--link FilesTab to AuditLog--><g class="link" data-entity-1="ent0029" data-entity-2="ent0008" data-link-type="dependency" data-source-line="165" id="lnk52"><path codeLine="165" d="M293.04,1851.2 C412.26,1851.2 796.16,1851.2 796.16,1851.2 C796.16,1851.2 796.16,1294.7 796.16,1294.7 C796.16,1294.7 2375.13,1294.7 2690.11,1294.7" fill="none" id="FilesTab-to-AuditLog" style="stroke:#181818;stroke-width:1;stroke-dasharray:7,7;"/><polygon fill="#181818" points="2696.11,1294.7,2687.11,1290.7,2691.11,1294.7,2687.11,1298.7,2696.11,1294.7" style="stroke:#181818;stroke-width:1;"/><text fill="#000000" font-family="sans-serif" font-size="13" lengthAdjust="spacing" textLength="41.9072" x="1174.33" y="1309.1951">historie</text></g><!--link ProfileTab to Profile--><g class="link" data-entity-1="ent0034" data-entity-2="ent0007" data-link-type="dependency" data-source-line="167" id="lnk53"><path codeLine="167" d="M299.4,166.5 C476.44,166.5 1163.16,166.5 1163.16,166.5 C1163.16,166.5 1163.16,949.5 1163.16,949.5 C1163.16,949.5 1357.67,949.5 1446.57,949.5" fill="none" id="ProfileTab-to-Profile" style="stroke:#181818;stroke-width:1;stroke-dasharray:7,7;"/><polygon fill="#181818" points="1452.57,949.5,1443.57,945.5,1447.57,949.5,1443.57,953.5,1452.57,949.5" style="stroke:#181818;stroke-width:1;"/><text fill="#000000" font-family="sans-serif" font-size="13" lengthAdjust="spacing" textLength="93.2026" x="1069.16" y="285.3251">CRUD singleton</text></g><!--link ProfileTab to AuditLog--><g class="link" data-entity-1="ent0034" data-entity-2="ent0008" data-link-type="dependency" data-source-line="168" id="lnk54"><path codeLine="168" d="M299.35,179.75 C380.26,179.75 552.16,179.75 552.16,179.75 C552.16,179.75 552.16,1220.3 552.16,1220.3 C552.16,1220.3 2352.32,1220.3 2690.1,1220.3" fill="none" id="ProfileTab-to-AuditLog" style="stroke:#181818;stroke-width:1;stroke-dasharray:7,7;"/><polygon fill="#181818" points="2696.1,1220.3,2687.1,1216.3,2691.1,1220.3,2687.1,1224.3,2696.1,1220.3" style="stroke:#181818;stroke-width:1;"/><text fill="#000000" font-family="sans-serif" font-size="13" lengthAdjust="spacing" textLength="41.9072" x="935.45" y="1234.7951">historie</text></g><!--link GMN35 to GMN55--><g class="link" data-entity-1="ent0036" data-entity-2="ent0056" data-link-type="association" data-source-line="171" id="lnk57"><path d="M1494.16,101.45 C1494.16,83.47 1494.16,63.72 1494.16,49.16" fill="none" id="GMN35-GMN55" style="stroke:#181818;stroke-width:1;stroke-dasharray:7,7;"/></g><?plantuml-src dLPDJ-D66BxdLqotKaNLJLZ8GYb2I3GG5R5TKHOExMtiUPqC7dkiyJYxpcv_0Zy0SSgH0-9UgRqu-LzzPyOEZcFeghd4VZ_dUTwFyJU9egE84aKrb-HDRtUx8o3GH4kY-6Yi2UCAVDJ5dJJaSK8LZOZWCUWy0IAL7ilEc3CWFbU-0FSS0OfPwbvI3GgaCKyxjHWGQwvpyhb3oCzICL03AQGYt_RxRxTsTeoK-k58oIncfIQmFzGCPQnBsPjWwyTjslcp7Zb1Hpg2zT0_lQLzR--_0yHIjtXlx-psmMix60J1RlDWMz2dUpPkTPnNnrJBIN5FheiPK_ALpL2oy27phf5bAoBab963W_EpmqFxzfv6O1ykWVfZKFPv897PWuEhzwU_NPsKXaVA7_C9C7p1jClObpGDMmENIQrmM0alkHOktR6CeH7gP88F_oiMrIK6Ne9v9trgkygUtFSnS2FPa0ku01zByFKPbrmDCE58gjoPZgbQe-LSoG0pjCOUPa8iGvr4b0iNHsSi_vLUI_Nq-ZjGrOXyb36ktydHrn_xn3fUueYKT2oP6IX09EneIKxLAL--TBloiotkkjJMQLtynEYwhZhqIiV-8YDOwLCZkAHUYUmCydqobf5h4-BcncqD6LIs7TD9YLJP_0PYxFuWYqCVzb7S9GceLCPKyAcSKAFyoDa8DujLiXWMixXu8CdY5iO262d-2gLOF6vch9W9cUhYmHggt1yBTAOObsoWDMTKE-EbwMOgCq-gxwt3Hu1Gv2IGVfQI7qYYk5JSPeMOMHGhB9nHWV9YjhXTuM9WnLGr-F1BSIidDP-NU9493Kj6AW3S4ORW4XaL3t5OaeJRcto7Vp8Xk6UDPl5eDTZSMb5aX66J6mfPDB_JcVC23OOiP8XFBOkjmCyhhxnjMQKDu6afRWLUyta9E1uCXwrsNB9XwvWl2ydBIkQkbDJkF8IvARqOANCiAJbIaAPDs6akg8SbfoJY0ZihVBRa7roE5TXcUfgOpGPf1rnPluHs0WeRlx1Dxb2LjTDqb6DZ1hY6D7pILXONCpi4vyT3nAgAsJGihLDMF61RcI04FYKSg_v2JUtQMm5MRi86jCH9My4zURm43trum4Cwlx5Jh2303u7O1mSHBu8ftZ2RGePc0T1Ixi4q0VJ0KfEDxU7HQv9Y9N4TfgxW210_EWXEU0DXjPfwlKDtvUsJ-Gsgwd9tVxKegcNOegfTGwMsKv_yUjZ1nTNncl8fj1dUnIsTcbAjcIql3ToeFDMua31HVT9MOzbKJNK9EyIl4DCrJNLrpEVqAqYVCsezvt8qriBOSwwedp1CwDIZgyhMwBN-D3RLnUs2avJ78m4Qxyk6NMiisyUUr5f6dJ-kWSMIPOiPLkHlSd9nl4-YuZwUtn6g5VSolNXyJQvfQXfRoIcRtxanIwJPgLEpa1R_G4YkJdkTSs6iKdzStEFNz7JnYDVJ36URJ4ZYRVNtkg1O5sVAOE-QmUubMIHwdMKB_mi0?></g></svg>