<?plantuml 1.2026.2?><svg xmlns="http://www.w3.org/2000/svg" xmlns:xlink="http://www.w3.org/1999/xlink" contentStyleType="text/css" data-diagram-type="CLASS" height="841px" preserveAspectRatio="none" style="width:1412px;height:841px;background:#FFFFFF;" version="1.1" viewBox="0 0 1412 841" width="1412px" zoomAndPan="magnify"><defs/><g><!--class Subject--><g class="entity" data-qualified-name="Subject" data-source-line="8" id="ent0002"><rect fill="#F1F1F1" height="166.875" rx="2.5" ry="2.5" style="stroke:#181818;stroke-width:0.5;" width="202.627" x="403.5" y="33.5"/><text fill="#000000" font-family="sans-serif" font-size="14" lengthAdjust="spacing" textLength="46.6963" x="481.4653" y="53.0332">Subject</text><line style="stroke:#181818;stroke-width:0.5;" x1="404.5" x2="605.127" y1="61.1094" y2="61.1094"/><text fill="#000000" font-family="sans-serif" font-size="14" lengthAdjust="spacing" textLength="94.9512" x="409.5" y="79.6426">Id : bigint &#171;PK&#187;</text><line style="stroke:#181818;stroke-width:1;" x1="404.5" x2="605.127" y1="86.7188" y2="86.7188"/><text fill="#000000" font-family="sans-serif" font-size="14" lengthAdjust="spacing" textLength="128.3789" x="409.5" y="105.252">Name : varchar(255)</text><text fill="#000000" font-family="sans-serif" font-size="14" lengthAdjust="spacing" textLength="142.3926" x="409.5" y="122.8613">Teacher : varchar(255)</text><text fill="#000000" font-family="sans-serif" font-size="14" lengthAdjust="spacing" textLength="190.627" x="409.5" y="140.4707">Code : varchar(64) &#171;UNIQUE&#187;</text><text fill="#000000" font-family="sans-serif" font-size="14" lengthAdjust="spacing" textLength="115.9648" x="409.5" y="158.0801">Archived : boolean</text><text fill="#000000" font-family="sans-serif" font-size="14" lengthAdjust="spacing" textLength="139.2754" x="409.5" y="175.6895">CreatedAt : timestamp</text><text fill="#000000" font-family="sans-serif" font-size="14" lengthAdjust="spacing" textLength="142.3994" x="409.5" y="193.2988">UpdatedAt : timestamp</text></g><!--class Task--><g class="entity" data-qualified-name="Task" data-source-line="19" id="ent0003"><rect fill="#F1F1F1" height="149.2656" rx="2.5" ry="2.5" style="stroke:#181818;stroke-width:0.5;" width="154.3994" x="7" y="322.5"/><text fill="#000000" font-family="sans-serif" font-size="14" lengthAdjust="spacing" textLength="30.3379" x="69.0308" y="342.0332">Task</text><line style="stroke:#181818;stroke-width:0.5;" x1="8" x2="160.3994" y1="350.1094" y2="350.1094"/><text fill="#000000" font-family="sans-serif" font-size="14" lengthAdjust="spacing" textLength="94.9512" x="13" y="368.6426">Id : bigint &#171;PK&#187;</text><text fill="#000000" font-family="sans-serif" font-size="14" lengthAdjust="spacing" textLength="140.8613" x="13" y="386.252">SubjectId : bigint &#171;FK&#187;</text><line style="stroke:#181818;stroke-width:1;" x1="8" x2="160.3994" y1="393.3281" y2="393.3281"/><text fill="#000000" font-family="sans-serif" font-size="14" lengthAdjust="spacing" textLength="117.4824" x="13" y="411.8613">Title : varchar(255)</text><text fill="#000000" font-family="sans-serif" font-size="14" lengthAdjust="spacing" textLength="94.9648" x="13" y="429.4707">Done : boolean</text><text fill="#000000" font-family="sans-serif" font-size="14" lengthAdjust="spacing" textLength="139.2754" x="13" y="447.0801">CreatedAt : timestamp</text><text fill="#000000" font-family="sans-serif" font-size="14" lengthAdjust="spacing" textLength="142.3994" x="13" y="464.6895">UpdatedAt : timestamp</text></g><!--class Event--><g class="entity" data-qualified-name="Event" data-source-line="29" id="ent0004"><rect fill="#F1F1F1" height="219.7031" rx="2.5" ry="2.5" style="stroke:#181818;stroke-width:0.5;" width="184.7373" x="261.5" y="287"/><text fill="#000000" font-family="sans-serif" font-size="14" lengthAdjust="spacing" textLength="35.7998" x="335.9688" y="306.5332">Event</text><line style="stroke:#181818;stroke-width:0.5;" x1="262.5" x2="445.2373" y1="314.6094" y2="314.6094"/><text fill="#000000" font-family="sans-serif" font-size="14" lengthAdjust="spacing" textLength="94.9512" x="267.5" y="333.1426">Id : bigint &#171;PK&#187;</text><text fill="#000000" font-family="sans-serif" font-size="14" lengthAdjust="spacing" textLength="140.8613" x="267.5" y="350.752">SubjectId : bigint &#171;FK&#187;</text><line style="stroke:#181818;stroke-width:1;" x1="262.5" x2="445.2373" y1="357.8281" y2="357.8281"/><text fill="#000000" font-family="sans-serif" font-size="14" lengthAdjust="spacing" textLength="117.4824" x="267.5" y="376.3613">Title : varchar(255)</text><text fill="#000000" font-family="sans-serif" font-size="14" lengthAdjust="spacing" textLength="68.4893" x="267.5" y="393.9707">Date : date</text><text fill="#000000" font-family="sans-serif" font-size="14" lengthAdjust="spacing" textLength="114.3584" x="267.5" y="411.5801">Time : varchar(64)</text><text fill="#000000" font-family="sans-serif" font-size="14" lengthAdjust="spacing" textLength="143.9648" x="267.5" y="429.1895">Location : varchar(255)</text><text fill="#000000" font-family="sans-serif" font-size="14" lengthAdjust="spacing" textLength="109.71" x="267.5" y="446.7988">Icon : varchar(64)</text><text fill="#000000" font-family="sans-serif" font-size="14" lengthAdjust="spacing" textLength="172.7373" x="267.5" y="464.4082">Accent : enum(AccentType)</text><text fill="#000000" font-family="sans-serif" font-size="14" lengthAdjust="spacing" textLength="139.2754" x="267.5" y="482.0176">CreatedAt : timestamp</text><text fill="#000000" font-family="sans-serif" font-size="14" lengthAdjust="spacing" textLength="142.3994" x="267.5" y="499.627">UpdatedAt : timestamp</text></g><!--class FileRecord--><g class="entity" data-qualified-name="FileRecord" data-source-line="43" id="ent0005"><rect fill="#F1F1F1" height="202.0938" rx="2.5" ry="2.5" style="stroke:#181818;stroke-width:0.5;" width="204.1855" x="555" y="296"/><text fill="#000000" font-family="sans-serif" font-size="14" lengthAdjust="spacing" textLength="67.6895" x="623.248" y="315.5332">FileRecord</text><line style="stroke:#181818;stroke-width:0.5;" x1="556" x2="758.1855" y1="323.6094" y2="323.6094"/><text fill="#000000" font-family="sans-serif" font-size="14" lengthAdjust="spacing" textLength="94.9512" x="561" y="342.1426">Id : bigint &#171;PK&#187;</text><text fill="#000000" font-family="sans-serif" font-size="14" lengthAdjust="spacing" textLength="140.8613" x="561" y="359.752">SubjectId : bigint &#171;FK&#187;</text><line style="stroke:#181818;stroke-width:1;" x1="556" x2="758.1855" y1="366.8281" y2="366.8281"/><text fill="#000000" font-family="sans-serif" font-size="14" lengthAdjust="spacing" textLength="128.3789" x="561" y="385.3613">Name : varchar(255)</text><text fill="#000000" font-family="sans-serif" font-size="14" lengthAdjust="spacing" textLength="110.4824" x="561" y="402.9707">Size : varchar(64)</text><text fill="#000000" font-family="sans-serif" font-size="14" lengthAdjust="spacing" textLength="157.9854" x="561" y="420.5801">AddedLabel : varchar(64)</text><text fill="#000000" font-family="sans-serif" font-size="14" lengthAdjust="spacing" textLength="192.1855" x="561" y="438.1895">Category : enum(FileCategory)</text><text fill="#000000" font-family="sans-serif" font-size="14" lengthAdjust="spacing" textLength="106.6406" x="561" y="455.7988">Shared : boolean</text><text fill="#000000" font-family="sans-serif" font-size="14" lengthAdjust="spacing" textLength="139.2754" x="561" y="473.4082">CreatedAt : timestamp</text><text fill="#000000" font-family="sans-serif" font-size="14" lengthAdjust="spacing" textLength="142.3994" x="561" y="491.0176">UpdatedAt : timestamp</text></g><!--class Profile--><g class="entity" data-qualified-name="Profile" data-source-line="56" id="ent0006"><rect fill="#F1F1F1" height="219.7031" rx="2.5" ry="2.5" style="stroke:#181818;stroke-width:0.5;" width="173.8408" x="713" y="7"/><text fill="#000000" font-family="sans-serif" font-size="14" lengthAdjust="spacing" textLength="39.6826" x="780.0791" y="26.5332">Profile</text><line style="stroke:#181818;stroke-width:0.5;" x1="714" x2="885.8408" y1="34.6094" y2="34.6094"/><text fill="#000000" font-family="sans-serif" font-size="14" lengthAdjust="spacing" textLength="94.9512" x="719" y="53.1426">Id : bigint &#171;PK&#187;</text><line style="stroke:#181818;stroke-width:1;" x1="714" x2="885.8408" y1="60.2188" y2="60.2188"/><text fill="#000000" font-family="sans-serif" font-size="14" lengthAdjust="spacing" textLength="150.9375" x="719" y="78.752">FullName : varchar(255)</text><text fill="#000000" font-family="sans-serif" font-size="14" lengthAdjust="spacing" textLength="126.041" x="719" y="96.3613">Email : varchar(255)</text><text fill="#000000" font-family="sans-serif" font-size="14" lengthAdjust="spacing" textLength="133.8408" x="719" y="113.9707">School : varchar(255)</text><text fill="#000000" font-family="sans-serif" font-size="14" lengthAdjust="spacing" textLength="161.8408" x="719" y="131.5801">StudyMajor : varchar(255)</text><text fill="#000000" font-family="sans-serif" font-size="14" lengthAdjust="spacing" textLength="156.4063" x="719" y="149.1895">StudyYear : varchar(100)</text><text fill="#000000" font-family="sans-serif" font-size="14" lengthAdjust="spacing" textLength="157.958" x="719" y="166.7988">StudyType : varchar(100)</text><text fill="#000000" font-family="sans-serif" font-size="14" lengthAdjust="spacing" textLength="122.1514" x="719" y="184.4082">AvatarDataUrl : text</text><text fill="#000000" font-family="sans-serif" font-size="14" lengthAdjust="spacing" textLength="139.2754" x="719" y="202.0176">CreatedAt : timestamp</text><text fill="#000000" font-family="sans-serif" font-size="14" lengthAdjust="spacing" textLength="142.3994" x="719" y="219.627">UpdatedAt : timestamp</text></g><!--class AuditLog--><g class="entity" data-qualified-name="AuditLog" data-source-line="70" id="ent0007"><rect fill="#F1F1F1" height="166.875" rx="2.5" ry="2.5" style="stroke:#181818;stroke-width:0.5;" width="200.2891" x="869" y="313.5"/><text fill="#000000" font-family="sans-serif" font-size="14" lengthAdjust="spacing" textLength="55.2686" x="941.5103" y="333.0332">AuditLog</text><line style="stroke:#181818;stroke-width:0.5;" x1="870" x2="1068.2891" y1="341.1094" y2="341.1094"/><text fill="#000000" font-family="sans-serif" font-size="14" lengthAdjust="spacing" textLength="94.9512" x="875" y="359.6426">Id : bigint &#171;PK&#187;</text><text fill="#000000" font-family="sans-serif" font-size="14" lengthAdjust="spacing" textLength="140.8613" x="875" y="377.252">SubjectId : bigint &#171;FK&#187;</text><text fill="#000000" font-family="sans-serif" font-size="14" lengthAdjust="spacing" textLength="91.8271" x="875" y="394.8613">EntityId : bigint</text><line style="stroke:#181818;stroke-width:1;" x1="870" x2="1068.2891" y1="401.9375" y2="401.9375"/><text fill="#000000" font-family="sans-serif" font-size="14" lengthAdjust="spacing" textLength="188.2891" x="875" y="420.4707">EntityType : enum(EntityType)</text><text fill="#000000" font-family="sans-serif" font-size="14" lengthAdjust="spacing" textLength="165.7441" x="875" y="438.0801">Action : enum(AuditAction)</text><text fill="#000000" font-family="sans-serif" font-size="14" lengthAdjust="spacing" textLength="87.9443" x="875" y="455.6895">Payload : json</text><text fill="#000000" font-family="sans-serif" font-size="14" lengthAdjust="spacing" textLength="139.2754" x="875" y="473.2988">CreatedAt : timestamp</text></g><!--class AccentType--><g class="entity" data-qualified-name="AccentType" data-source-line="81" id="ent0008"><rect fill="#F1F1F1" height="114.0469" rx="2.5" ry="2.5" style="stroke:#181818;stroke-width:0.5;" width="132.6338" x="287.5" y="584"/><text fill="#000000" font-family="sans-serif" font-size="14" lengthAdjust="spacing" textLength="73.9238" x="316.855" y="603.5332">AccentType</text><line style="stroke:#181818;stroke-width:0.5;" x1="288.5" x2="419.1338" y1="611.6094" y2="611.6094"/><text fill="#000000" font-family="sans-serif" font-size="14" lengthAdjust="spacing" textLength="120.6338" x="293.5" y="630.1426">Value : enum &#171;PK&#187;</text><line style="stroke:#181818;stroke-width:1;" x1="288.5" x2="419.1338" y1="637.2188" y2="637.2188"/><text fill="#000000" font-family="sans-serif" font-size="14" lengthAdjust="spacing" textLength="46.6689" x="293.5" y="655.752">primary</text><text fill="#000000" font-family="sans-serif" font-size="14" lengthAdjust="spacing" textLength="39.6826" x="293.5" y="673.3613">amber</text><text fill="#000000" font-family="sans-serif" font-size="14" lengthAdjust="spacing" textLength="50.5791" x="293.5" y="690.9707">emerald</text></g><!--class FileCategory--><g class="entity" data-qualified-name="FileCategory" data-source-line="89" id="ent0009"><rect fill="#F1F1F1" height="149.2656" rx="2.5" ry="2.5" style="stroke:#181818;stroke-width:0.5;" width="132.6338" x="590.5" y="566.5"/><text fill="#000000" font-family="sans-serif" font-size="14" lengthAdjust="spacing" textLength="79.3652" x="617.1343" y="586.0332">FileCategory</text><line style="stroke:#181818;stroke-width:0.5;" x1="591.5" x2="722.1338" y1="594.1094" y2="594.1094"/><text fill="#000000" font-family="sans-serif" font-size="14" lengthAdjust="spacing" textLength="120.6338" x="596.5" y="612.6426">Value : enum &#171;PK&#187;</text><line style="stroke:#181818;stroke-width:1;" x1="591.5" x2="722.1338" y1="619.7188" y2="619.7188"/><text fill="#000000" font-family="sans-serif" font-size="14" lengthAdjust="spacing" textLength="35.0205" x="596.5" y="638.252">folder</text><text fill="#000000" font-family="sans-serif" font-size="14" lengthAdjust="spacing" textLength="19.4619" x="596.5" y="655.8613">pdf</text><text fill="#000000" font-family="sans-serif" font-size="14" lengthAdjust="spacing" textLength="38.1309" x="596.5" y="673.4707">image</text><text fill="#000000" font-family="sans-serif" font-size="14" lengthAdjust="spacing" textLength="61.4824" x="596.5" y="691.0801">document</text><text fill="#000000" font-family="sans-serif" font-size="14" lengthAdjust="spacing" textLength="31.9102" x="596.5" y="708.6895">other</text></g><!--class EntityType--><g class="entity" data-qualified-name="EntityType" data-source-line="99" id="ent0010"><rect fill="#F1F1F1" height="149.2656" rx="2.5" ry="2.5" style="stroke:#181818;stroke-width:0.5;" width="132.6338" x="856.5" y="566.5"/><text fill="#000000" font-family="sans-serif" font-size="14" lengthAdjust="spacing" textLength="66.1377" x="889.748" y="586.0332">EntityType</text><line style="stroke:#181818;stroke-width:0.5;" x1="857.5" x2="988.1338" y1="594.1094" y2="594.1094"/><text fill="#000000" font-family="sans-serif" font-size="14" lengthAdjust="spacing" textLength="120.6338" x="862.5" y="612.6426">Value : enum &#171;PK&#187;</text><line style="stroke:#181818;stroke-width:1;" x1="857.5" x2="988.1338" y1="619.7188" y2="619.7188"/><text fill="#000000" font-family="sans-serif" font-size="14" lengthAdjust="spacing" textLength="63.7861" x="862.5" y="638.252">SUBJECT</text><text fill="#000000" font-family="sans-serif" font-size="14" lengthAdjust="spacing" textLength="29.5654" x="862.5" y="655.8613">FILE</text><text fill="#000000" font-family="sans-serif" font-size="14" lengthAdjust="spacing" textLength="59.9033" x="862.5" y="673.4707">PROFILE</text><text fill="#000000" font-family="sans-serif" font-size="14" lengthAdjust="spacing" textLength="36.5654" x="862.5" y="691.0801">TASK</text><text fill="#000000" font-family="sans-serif" font-size="14" lengthAdjust="spacing" textLength="46.6758" x="862.5" y="708.6895">EVENT</text></g><!--class AuditAction--><g class="entity" data-qualified-name="AuditAction" data-source-line="109" id="ent0011"><rect fill="#F1F1F1" height="131.6563" rx="2.5" ry="2.5" style="stroke:#181818;stroke-width:0.5;" width="132.6338" x="1077.5" y="575"/><text fill="#000000" font-family="sans-serif" font-size="14" lengthAdjust="spacing" textLength="70.8203" x="1108.4067" y="594.5332">AuditAction</text><line style="stroke:#181818;stroke-width:0.5;" x1="1078.5" x2="1209.1338" y1="602.6094" y2="602.6094"/><text fill="#000000" font-family="sans-serif" font-size="14" lengthAdjust="spacing" textLength="120.6338" x="1083.5" y="621.1426">Value : enum &#171;PK&#187;</text><line style="stroke:#181818;stroke-width:1;" x1="1078.5" x2="1209.1338" y1="628.2188" y2="628.2188"/><text fill="#000000" font-family="sans-serif" font-size="14" lengthAdjust="spacing" textLength="56.7861" x="1083.5" y="646.752">CREATE</text><text fill="#000000" font-family="sans-serif" font-size="14" lengthAdjust="spacing" textLength="56.7861" x="1083.5" y="664.3613">UPDATE</text><text fill="#000000" font-family="sans-serif" font-size="14" lengthAdjust="spacing" textLength="54.4619" x="1083.5" y="681.9707">DELETE</text><text fill="#000000" font-family="sans-serif" font-size="14" lengthAdjust="spacing" textLength="112.041" x="1083.5" y="699.5801">REPLACE_SYNC</text></g><g class="entity" data-qualified-name="GMN24" data-source-line="134" id="ent0025"><path d="M882.5,775.5 L882.5,834.5547 A0,0 0 0 0 882.5,834.5547 L1405.7393,834.5547 A0,0 0 0 0 1405.7393,834.5547 L1405.7393,785.5 L1395.7393,775.5 L1148,775.5 L1144,707.23 L1140,775.5 L882.5,775.5 A0,0 0 0 0 882.5,775.5" fill="#FEFFDD" style="stroke:#181818;stroke-width:0.5;"/><path d="M1395.7393,775.5 L1395.7393,785.5 L1405.7393,785.5 L1395.7393,775.5" fill="#FEFFDD" style="stroke:#181818;stroke-width:0.5;"/><text fill="#000000" font-family="sans-serif" font-size="13" lengthAdjust="spacing" textLength="429.127" x="888.5" y="793.9951">Datov&#253; model vych&#225;z&#237; z Prisma sch&#233;matu v server/prisma/schema.prisma.</text><text fill="#000000" font-family="sans-serif" font-size="13" lengthAdjust="spacing" textLength="502.2393" x="888.5" y="810.3467">Profile je singleton tabulka (aplika&#269;n&#283; vynuceno p&#345;es API), ne FK nav&#225;zan&#225; na Subject.</text><text fill="#000000" font-family="sans-serif" font-size="13" lengthAdjust="spacing" textLength="440.7051" x="888.5" y="826.6982">AuditLog pokr&#253;v&#225; historii zm&#283;n pro SUBJECT/FILE/PROFILE/TASK/EVENT.</text></g><!--link Subject to Task--><g class="link" data-entity-1="ent0002" data-entity-2="ent0003" data-link-type="crowfoot" data-source-line="118" id="lnk12"><path codeLine="118" d="M395.36,90 C263.56,90 58.33,90 58.33,90 C58.33,90 58.33,213.42 58.33,304.29" fill="none" id="Subject-Task" style="stroke:#181818;stroke-width:1;"/><line style="stroke:#181818;stroke-width:1;" x1="399.36" x2="399.36" y1="86" y2="94"/><line style="stroke:#181818;stroke-width:1;" x1="396.36" x2="396.36" y1="86" y2="94"/><line style="stroke:#181818;stroke-width:1;" x1="395.36" x2="403.36" y1="90" y2="90"/><line style="stroke:#181818;stroke-width:1;" x1="58.33" x2="64.33" y1="314.29" y2="322.29"/><line style="stroke:#181818;stroke-width:1;" x1="58.33" x2="52.33" y1="314.29" y2="322.29"/><line style="stroke:#181818;stroke-width:1;" x1="58.33" x2="58.33" y1="314.29" y2="322.29"/><ellipse cx="58.33" cy="308.29" fill="none" rx="4" ry="4" style="stroke:#181818;stroke-width:1;"/><polygon fill="#000000" points="80.4807,83.8585,89.6904,81.4855,86.5366,76.5253,80.4807,83.8585" style="stroke:#000000;stroke-width:1;"/><text fill="#000000" font-family="sans-serif" font-size="13" lengthAdjust="spacing" textLength="20.96" x="93.7" y="86.4951">has</text></g><!--link Task to Subject--><g class="link" data-entity-1="ent0003" data-entity-2="ent0002" data-link-type="crowfoot" data-source-line="123" id="lnk16"><path codeLine="123" d="M109.67,304.41 C109.67,230.11 109.67,145 109.67,145 C109.67,145 278.31,145 395.45,145" fill="none" id="Task-Subject" style="stroke:#181818;stroke-width:1;"/><line style="stroke:#181818;stroke-width:1;" x1="109.67" x2="115.67" y1="314.41" y2="322.41"/><line style="stroke:#181818;stroke-width:1;" x1="109.67" x2="103.67" y1="314.41" y2="322.41"/><line style="stroke:#181818;stroke-width:1;" x1="109.67" x2="109.67" y1="314.41" y2="322.41"/><ellipse cx="109.67" cy="308.41" fill="none" rx="4" ry="4" style="stroke:#181818;stroke-width:1;"/><line style="stroke:#181818;stroke-width:1;" x1="399.45" x2="399.45" y1="141" y2="149"/><line style="stroke:#181818;stroke-width:1;" x1="396.45" x2="396.45" y1="141" y2="149"/><line style="stroke:#181818;stroke-width:1;" x1="395.45" x2="403.45" y1="145" y2="145"/><polygon fill="#000000" points="102.2166,133.7401,92.8857,135.5797,95.749,140.7129,102.2166,133.7401" style="stroke:#000000;stroke-width:1;"/><text fill="#000000" font-family="sans-serif" font-size="13" lengthAdjust="spacing" textLength="60.709" x="106.85" y="141.4951">belongsTo</text></g><!--link Subject to Event--><g class="link" data-entity-1="ent0002" data-entity-2="ent0004" data-link-type="crowfoot" data-source-line="119" id="lnk13"><path codeLine="119" d="M432.17,208.63 C432.17,235.7 432.17,240.15 432.17,268.85" fill="none" id="Subject-Event" style="stroke:#181818;stroke-width:1;"/><line style="stroke:#181818;stroke-width:1;" x1="428.17" x2="436.17" y1="204.63" y2="204.63"/><line style="stroke:#181818;stroke-width:1;" x1="428.17" x2="436.17" y1="207.63" y2="207.63"/><line style="stroke:#181818;stroke-width:1;" x1="432.17" x2="432.17" y1="208.63" y2="200.63"/><line style="stroke:#181818;stroke-width:1;" x1="432.17" x2="438.17" y1="278.85" y2="286.85"/><line style="stroke:#181818;stroke-width:1;" x1="432.17" x2="426.17" y1="278.85" y2="286.85"/><line style="stroke:#181818;stroke-width:1;" x1="432.17" x2="432.17" y1="278.85" y2="286.85"/><ellipse cx="432.17" cy="272.85" fill="none" rx="4" ry="4" style="stroke:#181818;stroke-width:1;"/><polygon fill="#000000" points="364.17,239.9158,367.1089,230.8707,361.2311,230.8707,364.17,239.9158" style="stroke:#000000;stroke-width:1;"/><text fill="#000000" font-family="sans-serif" font-size="13" lengthAdjust="spacing" textLength="58.5381" x="373.17" y="240.2351">schedules</text></g><!--link Event to Subject--><g class="link" data-entity-1="ent0004" data-entity-2="ent0002" data-link-type="crowfoot" data-source-line="124" id="lnk17"><path codeLine="124" d="M417.83,268.74 C417.83,240.12 417.83,235.76 417.83,208.76" fill="none" id="Event-Subject" style="stroke:#181818;stroke-width:1;"/><line style="stroke:#181818;stroke-width:1;" x1="417.83" x2="423.83" y1="278.74" y2="286.74"/><line style="stroke:#181818;stroke-width:1;" x1="417.83" x2="411.83" y1="278.74" y2="286.74"/><line style="stroke:#181818;stroke-width:1;" x1="417.83" x2="417.83" y1="278.74" y2="286.74"/><ellipse cx="417.83" cy="272.74" fill="none" rx="4" ry="4" style="stroke:#181818;stroke-width:1;"/><line style="stroke:#181818;stroke-width:1;" x1="413.83" x2="421.83" y1="204.76" y2="204.76"/><line style="stroke:#181818;stroke-width:1;" x1="413.83" x2="421.83" y1="207.76" y2="207.76"/><line style="stroke:#181818;stroke-width:1;" x1="417.83" x2="417.83" y1="208.76" y2="200.76"/><polygon fill="#000000" points="347.83,247.9258,344.8911,256.9709,350.7689,256.9709,347.83,247.9258" style="stroke:#000000;stroke-width:1;"/><text fill="#000000" font-family="sans-serif" font-size="13" lengthAdjust="spacing" textLength="60.709" x="356.83" y="258.2451">belongsTo</text></g><!--link Subject to FileRecord--><g class="link" data-entity-1="ent0002" data-entity-2="ent0005" data-link-type="crowfoot" data-source-line="120" id="lnk14"><path codeLine="120" d="M575.6,208.63 C575.6,238.52 575.6,246.53 575.6,277.75" fill="none" id="Subject-FileRecord" style="stroke:#181818;stroke-width:1;"/><line style="stroke:#181818;stroke-width:1;" x1="571.6" x2="579.6" y1="204.63" y2="204.63"/><line style="stroke:#181818;stroke-width:1;" x1="571.6" x2="579.6" y1="207.63" y2="207.63"/><line style="stroke:#181818;stroke-width:1;" x1="575.6" x2="575.6" y1="208.63" y2="200.63"/><line style="stroke:#181818;stroke-width:1;" x1="575.6" x2="581.6" y1="287.75" y2="295.75"/><line style="stroke:#181818;stroke-width:1;" x1="575.6" x2="569.6" y1="287.75" y2="295.75"/><line style="stroke:#181818;stroke-width:1;" x1="575.6" x2="575.6" y1="287.75" y2="295.75"/><ellipse cx="575.6" cy="281.75" fill="none" rx="4" ry="4" style="stroke:#181818;stroke-width:1;"/><polygon fill="#000000" points="530.6,244.3658,533.5389,235.3207,527.6611,235.3207,530.6,244.3658" style="stroke:#000000;stroke-width:1;"/><text fill="#000000" font-family="sans-serif" font-size="13" lengthAdjust="spacing" textLength="35.4009" x="539.6" y="244.6851">stores</text></g><!--link FileRecord to Subject--><g class="link" data-entity-1="ent0005" data-entity-2="ent0002" data-link-type="crowfoot" data-source-line="125" id="lnk18"><path codeLine="125" d="M565.3,277.91 C565.3,246.74 565.3,238.77 565.3,208.89" fill="none" id="FileRecord-Subject" style="stroke:#181818;stroke-width:1;"/><line style="stroke:#181818;stroke-width:1;" x1="565.3" x2="571.3" y1="287.91" y2="295.91"/><line style="stroke:#181818;stroke-width:1;" x1="565.3" x2="559.3" y1="287.91" y2="295.91"/><line style="stroke:#181818;stroke-width:1;" x1="565.3" x2="565.3" y1="287.91" y2="295.91"/><ellipse cx="565.3" cy="281.91" fill="none" rx="4" ry="4" style="stroke:#181818;stroke-width:1;"/><line style="stroke:#181818;stroke-width:1;" x1="561.3" x2="569.3" y1="204.89" y2="204.89"/><line style="stroke:#181818;stroke-width:1;" x1="561.3" x2="569.3" y1="207.89" y2="207.89"/><line style="stroke:#181818;stroke-width:1;" x1="565.3" x2="565.3" y1="208.89" y2="200.89"/><polygon fill="#000000" points="495.3,252.5758,492.3611,261.6209,498.2389,261.6209,495.3,252.5758" style="stroke:#000000;stroke-width:1;"/><text fill="#000000" font-family="sans-serif" font-size="13" lengthAdjust="spacing" textLength="60.709" x="504.3" y="262.8951">belongsTo</text></g><!--link Subject to AuditLog--><g class="link" data-entity-1="ent0002" data-entity-2="ent0007" data-link-type="crowfoot" data-source-line="121" id="lnk15"><path codeLine="121" d="M596.2,208.86 C596.2,238.68 596.2,257 596.2,257 C596.2,257 881,257 881,257 C881,257 881,265.32 881,295.14" fill="none" id="Subject-AuditLog" style="stroke:#181818;stroke-width:1;"/><line style="stroke:#181818;stroke-width:1;" x1="592.2" x2="600.2" y1="204.86" y2="204.86"/><line style="stroke:#181818;stroke-width:1;" x1="592.2" x2="600.2" y1="207.86" y2="207.86"/><line style="stroke:#181818;stroke-width:1;" x1="596.2" x2="596.2" y1="208.86" y2="200.86"/><line style="stroke:#181818;stroke-width:1;" x1="881" x2="887" y1="305.14" y2="313.14"/><line style="stroke:#181818;stroke-width:1;" x1="881" x2="875" y1="305.14" y2="313.14"/><line style="stroke:#181818;stroke-width:1;" x1="881" x2="881" y1="305.14" y2="313.14"/><ellipse cx="881" cy="299.14" fill="none" rx="4" ry="4" style="stroke:#181818;stroke-width:1;"/><polygon fill="#000000" points="692.3852,249.6255,684.5808,244.1903,682.8766,249.8157,692.3852,249.6255" style="stroke:#000000;stroke-width:1;"/><text fill="#000000" font-family="sans-serif" font-size="13" lengthAdjust="spacing" textLength="41.1899" x="696.6" y="253.4951">scopes</text></g><!--link AuditLog to Subject--><g class="link" data-entity-1="ent0007" data-entity-2="ent0002" data-link-type="crowfoot" data-source-line="126" id="lnk19"><path codeLine="126" d="M875,295.25 C875,282.77 875,292 875,292 C875,292 585.9,292 585.9,292 C585.9,292 585.9,260.65 585.9,215.66" fill="none" id="AuditLog-Subject" style="stroke:#181818;stroke-width:1;"/><line style="stroke:#181818;stroke-width:1;" x1="875" x2="881" y1="305.25" y2="313.25"/><line style="stroke:#181818;stroke-width:1;" x1="875" x2="869" y1="305.25" y2="313.25"/><line style="stroke:#181818;stroke-width:1;" x1="875" x2="875" y1="305.25" y2="313.25"/><ellipse cx="875" cy="299.25" fill="none" rx="4" ry="4" style="stroke:#181818;stroke-width:1;"/><line style="stroke:#181818;stroke-width:1;" x1="585.9" x2="585.9" y1="211.66" y2="200.66"/><ellipse cx="585.9" cy="211.66" fill="none" rx="4" ry="4" style="stroke:#181818;stroke-width:1;"/><line style="stroke:#181818;stroke-width:1;" x1="581.9" x2="589.9" y1="204.66" y2="204.66"/><polygon fill="#000000" points="626.5793,281.8486,634.5199,287.083,636.0801,281.4159,626.5793,281.8486" style="stroke:#000000;stroke-width:1;"/><text fill="#000000" font-family="sans-serif" font-size="13" lengthAdjust="spacing" textLength="54.9199" x="640.4" y="288.4951">relatedTo</text></g><!--link Event to AccentType--><g class="link" data-entity-1="ent0004" data-entity-2="ent0008" data-link-type="crowfoot" data-source-line="128" id="lnk20"><path codeLine="128" d="M354,525.22 C354,551.74 354,553.01 354,575.96" fill="none" id="Event-AccentType" style="stroke:#181818;stroke-width:1;"/><line style="stroke:#181818;stroke-width:1;" x1="354" x2="348" y1="515.22" y2="507.22"/><line style="stroke:#181818;stroke-width:1;" x1="354" x2="360" y1="515.22" y2="507.22"/><line style="stroke:#181818;stroke-width:1;" x1="354" x2="354" y1="515.22" y2="507.22"/><ellipse cx="354" cy="521.22" fill="none" rx="4" ry="4" style="stroke:#181818;stroke-width:1;"/><line style="stroke:#181818;stroke-width:1;" x1="358" x2="350" y1="579.96" y2="579.96"/><line style="stroke:#181818;stroke-width:1;" x1="358" x2="350" y1="576.96" y2="576.96"/><line style="stroke:#181818;stroke-width:1;" x1="354" x2="354" y1="575.96" y2="583.96"/><polygon fill="#000000" points="317,541.7658,319.9389,532.7207,314.0611,532.7207,317,541.7658" style="stroke:#000000;stroke-width:1;"/><text fill="#000000" font-family="sans-serif" font-size="13" lengthAdjust="spacing" textLength="27.46" x="326" y="542.0851">uses</text></g><!--link FileRecord to FileCategory--><g class="link" data-entity-1="ent0005" data-entity-2="ent0009" data-link-type="crowfoot" data-source-line="129" id="lnk21"><path codeLine="129" d="M657,516.01 C657,538.82 657,536.64 657,558.15" fill="none" id="FileRecord-FileCategory" style="stroke:#181818;stroke-width:1;"/><line style="stroke:#181818;stroke-width:1;" x1="657" x2="651" y1="506.01" y2="498.01"/><line style="stroke:#181818;stroke-width:1;" x1="657" x2="663" y1="506.01" y2="498.01"/><line style="stroke:#181818;stroke-width:1;" x1="657" x2="657" y1="506.01" y2="498.01"/><ellipse cx="657" cy="512.01" fill="none" rx="4" ry="4" style="stroke:#181818;stroke-width:1;"/><line style="stroke:#181818;stroke-width:1;" x1="661" x2="653" y1="562.15" y2="562.15"/><line style="stroke:#181818;stroke-width:1;" x1="661" x2="653" y1="559.15" y2="559.15"/><line style="stroke:#181818;stroke-width:1;" x1="657" x2="657" y1="558.15" y2="566.15"/><polygon fill="#000000" points="601,528.2558,603.9389,519.2107,598.0611,519.2107,601,528.2558" style="stroke:#000000;stroke-width:1;"/><text fill="#000000" font-family="sans-serif" font-size="13" lengthAdjust="spacing" textLength="46.9727" x="610" y="528.5751">typedAs</text></g><!--link AuditLog to EntityType--><g class="link" data-entity-1="ent0007" data-entity-2="ent0010" data-link-type="crowfoot" data-source-line="130" id="lnk22"><path codeLine="130" d="M929.25,498.63 C929.25,526.5 929.25,531.34 929.25,558.47" fill="none" id="AuditLog-EntityType" style="stroke:#181818;stroke-width:1;"/><line style="stroke:#181818;stroke-width:1;" x1="929.25" x2="923.25" y1="488.63" y2="480.63"/><line style="stroke:#181818;stroke-width:1;" x1="929.25" x2="935.25" y1="488.63" y2="480.63"/><line style="stroke:#181818;stroke-width:1;" x1="929.25" x2="929.25" y1="488.63" y2="480.63"/><ellipse cx="929.25" cy="494.63" fill="none" rx="4" ry="4" style="stroke:#181818;stroke-width:1;"/><line style="stroke:#181818;stroke-width:1;" x1="933.25" x2="925.25" y1="562.47" y2="562.47"/><line style="stroke:#181818;stroke-width:1;" x1="933.25" x2="925.25" y1="559.47" y2="559.47"/><line style="stroke:#181818;stroke-width:1;" x1="929.25" x2="929.25" y1="558.47" y2="566.47"/><polygon fill="#000000" points="885.25,519.7258,888.1889,510.6807,882.3111,510.6807,885.25,519.7258" style="stroke:#000000;stroke-width:1;"/><text fill="#000000" font-family="sans-serif" font-size="13" lengthAdjust="spacing" textLength="34.6709" x="894.25" y="520.0451">tracks</text></g><!--link AuditLog to AuditAction--><g class="link" data-entity-1="ent0007" data-entity-2="ent0011" data-link-type="crowfoot" data-source-line="131" id="lnk23"><path codeLine="131" d="M1029.25,498.63 C1029.25,569.26 1029.25,641 1029.25,641 C1029.25,641 1044,641 1069.25,641" fill="none" id="AuditLog-AuditAction" style="stroke:#181818;stroke-width:1;"/><line style="stroke:#181818;stroke-width:1;" x1="1029.25" x2="1023.25" y1="488.63" y2="480.63"/><line style="stroke:#181818;stroke-width:1;" x1="1029.25" x2="1035.25" y1="488.63" y2="480.63"/><line style="stroke:#181818;stroke-width:1;" x1="1029.25" x2="1029.25" y1="488.63" y2="480.63"/><ellipse cx="1029.25" cy="494.63" fill="none" rx="4" ry="4" style="stroke:#181818;stroke-width:1;"/><line style="stroke:#181818;stroke-width:1;" x1="1073.25" x2="1073.25" y1="637" y2="645"/><line style="stroke:#181818;stroke-width:1;" x1="1070.25" x2="1070.25" y1="637" y2="645"/><line style="stroke:#181818;stroke-width:1;" x1="1069.25" x2="1077.25" y1="641" y2="641"/><polygon fill="#000000" points="1002.6024,598.7994,1002.9852,589.2965,997.3265,590.8864,1002.6024,598.7994" style="stroke:#000000;stroke-width:1;"/><text fill="#000000" font-family="sans-serif" font-size="13" lengthAdjust="spacing" textLength="51.2891" x="1010.25" y="599.3051">performs</text></g><?plantuml-src jLR1Rjj64BthAxOt6wWaDwXx4083h4m3gbLNiQW0EHKZxbXQQvTBB9T4vJYVa0y8SignXtv2JdB-AxDBKgPKsZ1WHnSjPnxdpSo-sULFgO650cR02isEUiV7dMmbaXGCA2P5WdQT8jF6BdLdAJYoM9XOOhbMI6QUbG-PHOFQmRDE1nChx9fDy_arnfQzxp3wZJWRiBbOYCIorwydvoSdtjpjTlt_1IWaG04cNe8vU7LyVEZj4KAyHDFc6chUVEMtNmyfyEnYz6OMLi43yeW2FRFM4Y4fNpG85dbWoMw5mio2Ihrdbl8MpuTjIH5agyVhgOhUzPxjLni9ArlBFTK9lbYsOK6B7vikyPFTfL41rTwMUFDOnqvXILk8KRnZhry9ujWbFs2OvEgWV8f8NeVFxCcPa7Y9iJRy9Hhpa6gdugQj3m7doCSmHzdY75BU2stMTSqkqzfMHINu2ufvOlGLSJnjFizoAH-gDbGWP6iRuYLbskgnEL__2TVQFEXzXz1q_d9qr70wARGvWm8i698bp8mZjlYFVMQRWfmBEzQBv-WbzA4QpftUbjwg9B_tzvPw6ghnAQV1PLIQIlS4rbA3YtwTwSTaqQXgEr5LNMz1vZL_cm1I8nIOjL-3cgFnArHeGFAz0TjA-McXhxJaLRoKN_b_ubgKHmhNSQwmwfYsT1SqJxZxpZsDQZhx_Ozm69MI7et3idsNVstNKJ0zBpVbRNWHxSkWseUdSGqlmo0geyucf_NoD1o7rV8od8o3OVZtzDt5q37L5-RjRRUhtvUNpO0j8MCd-xxoQ1-mZ2v7dajiWJHEEi9PRTf0Mt6xK3hra8ud_g2xtTlRxILEmaMfaqKMQOAKz8z26lIFuhOPE9HkeWnA9s6FscLiY7V0yind_N--7INI512S1za-9G5tviyQY5TjgAO01Yn5SwMDylrADDs2SssjLXqwUdIn-SeKVPn8LgpZvURBpUO_TaF7hSZeMujsRFEl0fkpWcLe2ZJzr7lwRYyLzCgdNgS-dg_fwqea2ucMY2tCSxa2TW2f52ku-vZSVIQM9AU6Q9P--qIz22QZmvyPVKUSdRC42kA7PFE5bdLlU_UrfNfbDby9mvR2QKG8TgFkFYSqxheUbhuRZdur97qt87q_73qQ3SvSyPtl?></g></svg>